<?xml version="1.0" encoding="UTF-8"?>
<svg id="Layer_8" data-name="Layer 8" xmlns="http://www.w3.org/2000/svg" viewBox="0 0 792 792">
  <defs>
    <style>
      .cls-1 {
        fill: #d2232a;
      }

      .cls-2 {
        stroke: #d2232a;
      }

      .cls-2, .cls-3, .cls-4, .cls-5 {
        fill: #fff;
      }

      .cls-2, .cls-3, .cls-6, .cls-7, .cls-8 {
        stroke-miterlimit: 10;
      }

      .cls-3, .cls-4 {
        stroke-width: 6.45px;
      }

      .cls-3, .cls-4, .cls-6, .cls-7, .cls-8 {
        stroke: #000;
      }

      .cls-4 {
        stroke-linejoin: round;
      }

      .cls-4, .cls-7 {
        stroke-linecap: round;
      }

      .cls-7 {
        fill: none;
        stroke-width: 20.97px;
      }

      .cls-8 {
        stroke-width: 9.68px;
      }
    </style>
  </defs>
  <g>
    <circle class="cls-1" cx="396" cy="396" r="388.44"/>
    <circle class="cls-1" cx="396" cy="396" r="388.44"/>
  </g>
  <g>
    <g>
      <path class="cls-5" d="M396,667.57c-146.28,0-265.28-99.54-265.28-221.89,0-45.26,16.22-88.8,46.9-125.93l7.28-8.81-8.9-7.17c-10.33-8.33-17.79-18.67-22.19-30.75-15.26-41.96,12.9-90.86,62.78-109,12.44-4.52,25.25-6.82,38.07-6.82,37.61,0,69.04,19.63,80.09,50.01,1.28,3.5,2.27,7.12,2.96,10.77l2,10.66,10.73-1.56c14.92-2.17,30.25-3.28,45.57-3.28s30.05,1.06,44.81,3.15l11.46,1.62,1.34-11.49c.61-5.2,1.84-10.37,3.65-15.36,11.05-30.38,42.49-50.01,80.1-50.01,12.82,0,25.62,2.29,38.06,6.82,49.88,18.15,78.04,67.06,62.77,109.02-4.68,12.86-13.19,24.15-24.63,32.64l-9.72,7.22,7.88,9.2c32.42,37.82,49.56,82.46,49.56,129.1,0,122.35-119.01,221.89-265.28,221.89v-.03Z"/>
      <path d="M537.37,162.98c11.49,0,23,2.06,34.19,6.14,21.93,7.98,39.78,22.63,50.27,41.26,9.85,17.49,11.89,36.42,5.75,53.29-3.98,10.93-10.96,20.16-20.75,27.43l-19.44,14.44,15.76,18.39c30.64,35.74,46.84,77.84,46.84,121.75,0,116.13-113.94,210.6-253.99,210.6s-253.99-94.48-253.99-210.6c0-42.6,15.32-83.66,44.31-118.73l14.57-17.62-17.8-14.35c-8.7-7.02-14.98-15.7-18.67-25.81-13.13-36.11,12-78.52,56.02-94.53,11.2-4.07,22.71-6.14,34.21-6.14,32.8,0,60.07,16.71,69.49,42.61,1.06,2.89,1.88,5.9,2.45,8.94l3.99,21.32,21.46-3.13c14.38-2.1,29.17-3.16,43.95-3.16s28.99,1.02,43.23,3.04l22.91,3.24,2.69-22.98c.51-4.33,1.53-8.65,3.04-12.81,9.41-25.87,36.69-42.59,69.5-42.59h0M537.36,140.39c-41.04,0-77.66,21.56-90.72,57.45-2.13,5.88-3.54,11.88-4.25,17.91-15.08-2.13-30.59-3.26-46.4-3.26s-31.87,1.16-47.2,3.39c-.79-4.22-1.93-8.42-3.44-12.55-13.05-35.89-49.67-57.44-90.71-57.44-13.72,0-27.94,2.41-41.93,7.5-55.82,20.31-86.95,75.59-69.53,123.48,5.22,14.35,14.19,26.39,25.72,35.68-31.19,37.74-49.49,83.64-49.49,133.12,0,128.79,123.83,233.19,276.58,233.19s276.58-104.4,276.58-233.19c0-50.95-19.38-98.08-52.27-136.45,12.87-9.56,22.88-22.37,28.51-37.85,17.42-47.89-13.71-103.19-69.53-123.5-13.99-5.09-28.2-7.5-41.92-7.5h0v.02Z"/>
    </g>
    <ellipse cx="486.86" cy="298.97" rx="16.72" ry="24.62" transform="translate(76.69 696.69) rotate(-75.67)"/>
    <ellipse cx="305.12" cy="299.01" rx="24.62" ry="16.72" transform="translate(-64.51 84.82) rotate(-14.33)"/>
    <ellipse cx="396" cy="297.26" rx="14.21" ry="9.76"/>
    <line class="cls-8" x1="396" y1="297.26" x2="396" y2="342.31"/>
    <ellipse class="cls-6" cx="396" cy="478.45" rx="210.91" ry="150.97"/>
    <line class="cls-7" x1="265.61" y1="418.34" x2="526.39" y2="418.34"/>
    <line class="cls-7" x1="265.61" y1="478.45" x2="526.39" y2="478.45"/>
    <line class="cls-7" x1="265.61" y1="539.18" x2="526.39" y2="539.18"/>
    <g>
      <path class="cls-4" d="M265.19,395.66c-9.31-12.02-24.55-17.88-39.54-15.31-19.12,3.26-55.34,19.91-47.16,38.88s43.86-16.54,50.45-10.16,9.09,15.79,9.09,15.79c-12.33-8.81-56.26,5.43-62.72,50.34-.91,6.31-6.21,31.3,9.13,49.08,3.02,3.5,11.73,13.6,25.67,13.7,15.04.1,24.59-11.55,26.26-13.7,4.15-5.32,5.99-10.84,6.84-14.79-1.11,8.13-2.4,27.72,11,27.72,8.45,0,15.23-9.07,19.89-18.13,4.9-9.52,7.84-19.92,9.02-30.57,2.34-21.18,3.81-64.73-17.94-92.83v-.02ZM229.57,481.93c-3.76,4.97-11.15,11.15-14.92,9.08-3.9-2.13-3.65-12.87,1.32-19.75,4.95-6.87,15.05-10.55,18.31-7.52,3.27,3-.44,12.52-4.71,18.18h0Z"/>
      <path class="cls-4" d="M296,372.27c25.9-8.41,39.49,101.6,42.22,103.27,8.3-10.93,11.61-74.74,32.33-96.25,6.44-8.92,22.13-5.09,21.55,5.89-2.47,46.6-33.52,154-52.86,153.97-23.87.03-69.25-158.43-43.24-166.88h0Z"/>
      <path class="cls-3" d="M492.38,403.07c0-13-9.73-23.41-21.73-23.55-9.41-.11-15.48,5.1-19.02,10.84-4.58-3.05-9.93-6.6-13.01-7.59-23.52-7.55-43.2,23.84-43.48,61.43-.18,23.72,7.55,40.78,22.96,51.2-.68,4.26-1.55,8.68-2.66,13.25-.27,1.13-.56,2.24-.86,3.32-23.41,6.5-35.53,25.99-39.12,45.46-5.24,28.31,18.55,44.79,51.63,43.32,34.25-1.5,51.19-21.21,54.63-45.79,2.09-33.86-14.14-38.33-39.83-39.84.84-1.87,2.92-8.58,4.01-10.83,22.99-1.29,42.54-27.94,38.3-60.97-.87-6.84-5.41-17.46-7.62-23.09,7.61-3.65,15.8-7.53,15.8-17.16h0ZM427.33,566.54c-13.28,2.23-16.33-2.32-17.1-7.78-.89-6.4,5.21-12.66,13.89-14.04,8.7-1.37,16.36,2.71,17.55,9.07,1,5.37-1.18,10.54-14.34,12.75ZM434.24,464.29c-5.95-.44-9.49-4.97-9.49-10.97-.02-6.91,2.55-13.75,8.41-13.7,5.37.05,12.07,6.63,12.26,13.47.16,5.89-5.66,11.62-11.18,11.2h0Z"/>
      <path class="cls-4" d="M618.01,485.67c-1.15-7.68-8.42-12.87-15.94-10.91-4.63,1.23-10.39,4.5-17.17,11.73-17.21,18.41-30.3,12.16-36.35,4.74-1.82-2.24-3.19-4.79-4.32-7.44-3.48-8.1-2.32-13.18-2.32-13.18,0,0,8.39.56,11.71.56,28.14,0,55.32-15.15,53.42-45.01-1.79-28.25-14.65-40.59-42.46-40.66-22.67-.06-51.21,16.2-60.13,37.07,0,0-.02.02-.03.06-1.05,2.27-31.19,69.31,20.8,106.46,6.79,4.86,14.83,7.76,23.17,8.28,11.47.73,28.77-.45,43.74-10.76,20.55-14.15,27.8-28.22,25.89-40.96v.02ZM558.29,419.23c8.62-3.39,16.28-2.73,18.52,3.02,2.24,5.73-1.81,11.89-10.42,15.28-8.63,3.37-18.55,2.68-20.8-3.05-2.24-5.73,4.08-11.87,12.7-15.25h0Z"/>
    </g>
    <g>
      <path class="cls-2" d="M548.28,236.59c-11.36,0-20.88-3.44-26.81-9.69-4.27-4.49-6.35-10.07-6.04-16.13.39-7.53,3.27-14.99,7.9-20.47,5.54-6.54,13.08-10,21.82-10,1.5,0,3.04.1,4.6.31,2.7.36,6.59,1.25,10.08,2.18l-6.78-72.09c-.96-10.21,2.82-16.72,10.12-17.41.47-.04.95-.07,1.41-.07,7.64,0,14.19,5.96,14.91,13.58l9.44,100.4c.6,6.47-1.64,12.52-6.5,17.51-5.27,5.42-19.25,11.5-32.64,11.85-.51,0-1.01.02-1.51.02h0Z"/>
      <path d="M564.59,97.26c5.55,0,10.36,4.26,10.89,9.92l9.44,100.4c.47,5.03-1.1,9.93-5.37,14.32-4.27,4.39-17.1,10.3-29.86,10.63-.47,0-.94.02-1.4.02-18.26,0-29.45-9.53-28.82-21.57.66-12.67,9.33-26.65,25.7-26.65,1.31,0,2.66.09,4.07.28,4.16.55,11.55,2.53,15.18,3.72l-7.34-78.01c-.56-6,.48-12.45,6.49-13.02.34-.03.69-.05,1.03-.05M564.59,89.2c-.6,0-1.21.03-1.8.08-7.57.71-15.16,6.81-13.75,21.8l6.25,66.45c-1.81-.4-3.55-.73-5.01-.92-1.72-.23-3.45-.34-5.12-.34-9.82,0-18.66,4.06-24.9,11.43-5.19,6.14-8.42,14.47-8.85,22.87-.37,7.08,2.17,13.87,7.14,19.11,6.7,7.06,17.26,10.94,29.73,10.94.53,0,1.07,0,1.61-.02,14.6-.39,29.48-6.95,35.43-13.07,5.7-5.86,8.34-13.02,7.62-20.69l-9.44-100.41c-.91-9.66-9.22-17.23-18.92-17.23h.01Z"/>
    </g>
    <g>
      <path class="cls-2" d="M631.48,278.5c-16.51,0-29.94-14-29.94-31.2s13.43-31.22,29.94-31.22c5.48,0,10.76,1.54,15.36,4.41l10.4-44.53c1.18-5.05,5.63-8.58,10.81-8.58.85,0,1.7.1,2.53.29,3.23.75,7.34,3.13,8.51,10.17,0,.05.04.26.09.6,1.69,12.12,3.52,21.38,4.91,24.79,1.45,3.54,6.83,9.76,10.04,13.47,1.24,1.43,2.31,2.67,3.05,3.61,1.56,1.96,5.73,7.2,4.52,14.33-1.04,6.15-5.84,11.96-14.26,17.28-.66.42-1.41.62-2.15.62-.79,0-1.58-.23-2.26-.7-1.33-.9-2-2.5-1.7-4.08.04-.28,1.17-8.02-7.16-15.65-2.29-2.09-4.24-4.02-5.85-5.79-2.47,9.72-6.23,24.21-7.39,27.39-.2.54-.38,1.13-.57,1.87-3.55,13.5-15.41,22.92-28.86,22.92h-.02Z"/>
      <path d="M668.05,171.42c.53,0,1.07.06,1.61.19,3.24.76,4.84,3.23,5.45,6.91.08.51,2.61,19.81,5.24,26.25,2.26,5.52,10.87,14.52,13.66,18.05,2.58,3.24,10.63,13.48-8.73,25.69,0,0,1.86-9.97-8.41-19.36-9.65-8.82-10.24-12.16-10.28-12.54,0,0-7.81,31.19-9.47,35.72-.27.73-.49,1.48-.69,2.23-3.02,11.48-13.05,19.91-24.96,19.91-14.31,0-25.91-12.16-25.91-27.17s11.6-27.18,25.91-27.18c6.92,0,13.2,2.84,17.84,7.47l11.84-50.71c.76-3.25,3.67-5.46,6.88-5.46M668.05,163.35h0c-7.06,0-13.12,4.81-14.73,11.69l-9.23,39.51c-3.96-1.64-8.23-2.5-12.6-2.5-18.73,0-33.98,15.81-33.98,35.25s15.24,35.23,33.98,35.23c15.28,0,28.75-10.66,32.76-25.93.16-.61.31-1.09.46-1.5.97-2.63,3.49-12.14,5.76-20.91.32.3.64.6.98.9,6.18,5.65,5.97,11.17,5.9,12.03-.73,3.16.56,6.24,3.2,8.14,1.32.95,2.88,1.41,4.46,1.41s3.2-.47,4.6-1.35c9.43-5.95,14.84-12.68,16.08-20.01,1.51-8.91-3.65-15.4-5.35-17.53-.78-.99-1.88-2.25-3.15-3.72-2.85-3.29-8.16-9.43-9.36-12.36-.98-2.4-2.72-9.91-4.65-23.81-.06-.41-.09-.65-.1-.71-1.62-9.71-7.95-12.58-11.57-13.43-1.13-.26-2.29-.4-3.44-.4h-.02Z"/>
    </g>
  </g>
  <g>
    <path class="cls-5" d="M278.84,722.76c-5.43,0-10.89-.79-16.22-2.34-17.92-5.23-30.21-16.76-33.72-31.64-2.26-9.61-.58-18.32,4.87-25.21,6.94-8.76,19.88-13.99,34.61-13.99,8.21,0,16.11,2.39,22.93,6.83-.07-7.61-.09-19.31.23-31.21,1.16-42.28,5.45-45.97,7.51-47.74,3.21-2.76,7.13-4.22,11.33-4.22,7.71,0,18.01,5.88,19.23,13.18.25,1.27,2.52,9.7,7.02,17.91,4.38,7.99,13.83,21.64,17.75,25.63l.28.28c3.34,3.38,12.2,12.36,10.84,24.18-.97,8.44-6.97,16.19-17.84,23.04-.66.42-1.41.62-2.15.62-.83,0-1.66-.26-2.36-.76-1.33-.96-1.95-2.64-1.55-4.24.14-.58,3.36-14.72-8.77-22.57-6.33-4.1-10.98-9.17-14.32-14.07-.42,17.42-1.19,41.74-2.43,53.97.92,1.57.44,2.96-.21,4.82-.38,1.08-1,2.83-1.96,5.51-4.48,12.5-13.02,19.29-26.88,21.39-2.69.41-5.45.61-8.21.61l.02.02Z"/>
    <path d="M310.39,577.28c7.47,0,14.59,5.82,15.25,9.81.13.77,2.39,9.92,7.46,19.18,4.58,8.37,14.18,22.22,18.41,26.52,4.41,4.49,23.4,22.73-5.99,41.27,0,0,4.31-17.35-10.49-26.92-16.67-10.78-20.13-28.17-20.18-28.73,0,0-1.16,70.73-3.69,77.59-.02.05-.03.08-.03.08,0,0,1.38-3.67,1.43-3.67.03,0-.52,1.61-2.45,6.99-4.01,11.18-11.39,16.9-23.68,18.77-2.52.38-5.06.57-7.6.57-5.09,0-10.18-.75-15.09-2.18-15.45-4.51-27.58-14.51-30.92-28.69-5.23-22.19,13.83-34.24,35.55-34.24,10.51,0,20.04,4.31,27.09,11.34,0,0-1.78-77.55,6.21-84.43,2.7-2.32,5.73-3.24,8.7-3.24M310.39,569.22h0c-5.18,0-10.01,1.8-13.96,5.19-3.9,3.35-7.8,10.03-8.91,50.69-.24,8.79-.29,17.48-.28,24.5-5.88-2.65-12.28-4.05-18.86-4.05-16.2,0-29.97,5.66-37.78,15.52-6.24,7.88-8.19,17.79-5.63,28.63,3.85,16.33,17.16,28.93,36.51,34.58,5.7,1.66,11.53,2.51,17.35,2.51,2.96,0,5.92-.22,8.81-.66,15.26-2.31,25.1-10.17,30.07-24.02.97-2.69,1.59-4.45,1.97-5.54.63-1.81,1.45-4.15.55-6.75.56-6.05,1.18-16.46,1.78-34.92.08-2.59.16-5.17.24-7.7,2.43,2.38,5.22,4.66,8.4,6.72,4.01,2.59,6.34,6.17,7.12,10.93.62,3.78,0,6.95-.08,7.31-.84,3.2.37,6.51,3.04,8.47,1.39,1.03,3.04,1.53,4.7,1.53,1.53,0,3.06-.43,4.4-1.28,11.95-7.54,18.58-16.28,19.69-25.99,1.58-13.74-8.62-24.08-11.98-27.47l-.27-.28c-3.34-3.4-12.58-16.51-17.09-24.74-4.5-8.22-6.47-16.19-6.61-16.8-1.56-8.59-12.55-16.38-23.18-16.38h0Z"/>
  </g>
  <g>
    <path class="cls-5" d="M129.89,648.01c-11.98,0-19.86-9.08-20.57-23.7-.32-6.6,2.28-13.32,7.14-18.41,4.45-4.67,10.31-7.35,16.07-7.35,2.04,0,4.04.33,5.98.97-3.54-6.92-8.94-14.59-16.43-23.39-2.6-3.06-3.36-7.31-1.97-11.1,1.39-3.8,4.58-6.46,8.54-7.11,1.02-.17,1.95-.25,2.92-.25.72,0,1.35.04,1.96.09.59.04,1.14.08,1.8.08.37,0,.79-.01,1.25-.05l.83-.06c12.04-.84,15.27-1.07,27.32-12.84,1.82-1.78,4.22-2.76,6.75-2.76,1.45,0,2.89.34,4.18.98,2.37,1.18,3.15,2.43,3.77,4.31.08.25.18.55.33.93.13.35,10.51,27.34,27.39,49.67,4.13,5.46,6.33,11.87,6.35,18.52v.26c0,9.69-10.63,23.78-27.3,23.78-.42,0-.85,0-1.28-.03-12.37-.52-20.63-8.3-21.05-19.83-.16-4.28.13-9.67,3.78-13.46,2.26-2.34,5.38-3.67,9.49-4.02-3.07-4.68-5.01-8.43-8.21-15.6-3.33,3.16-7.18,4.53-12.35,4.59l5.65,12.53c2.49,5.09,2.17,16.43-.61,22.79-3.07,9.5-14.88,18.12-27.62,20.12-1.4.22-2.78.33-4.1.33h0Z"/>
    <path d="M171.48,546.16c.81,0,1.63.18,2.39.56,1.73.86,1.36,1.16,2.16,3.14,0,0,10.46,27.5,27.92,50.58,3.51,4.65,5.52,10.27,5.53,16.1v.25c0,7.14-8.47,19.74-23.27,19.74-.37,0-.74,0-1.11-.02-9.02-.38-16.81-5.5-17.19-15.94-.28-7.7,1.47-13.39,11.58-13.39,1.64,0,3.5.15,5.61.46-7.26-10.2-8.53-12.49-15.16-27.78-3.75,6.12-7.25,8.34-13.69,8.34-1.79,0-3.8-.17-6.11-.48l8.45,18.76c1.87,3.73,1.81,14.07-.74,19.63-2.42,7.91-12.76,15.73-24.47,17.57-1.22.19-2.38.28-3.48.28-11.16,0-16.04-9.5-16.54-19.86-.53-10.99,8.88-21.53,19.18-21.53,3.76,0,7.63,1.4,11.19,4.7,1.17,1.09,1.76,1.47,3.08,2.82-2.76-11.83-10.83-23.88-21.65-36.59-3.55-4.17-1.24-10.72,4.16-11.61.89-.15,1.6-.19,2.26-.19,1.23,0,2.24.17,3.76.17.46,0,.96-.02,1.54-.06,13.26-.93,17.3-.95,30.68-14.03,1.07-1.05,2.5-1.62,3.93-1.62M171.48,538.1c-3.59,0-6.99,1.39-9.57,3.91-10.98,10.73-13.09,10.88-24.78,11.7l-.83.06c-.34.02-.66.04-.97.04-.51,0-.98-.03-1.51-.07-.65-.05-1.38-.1-2.25-.1-1.17,0-2.34.1-3.57.3-5.41.89-9.78,4.52-11.67,9.7-1.89,5.15-.86,10.94,2.68,15.1,4.91,5.77,8.88,11.01,11.98,15.83-6.35.43-12.63,3.49-17.45,8.55-5.61,5.89-8.62,13.69-8.25,21.39.81,16.73,10.47,27.53,24.6,27.53,1.53,0,3.12-.13,4.73-.38,12.42-1.95,23.73-9.37,28.88-18.46,4.22,6.72,11.79,10.97,21.25,11.37.49.02.97.03,1.45.03,19.41,0,31.33-16.2,31.33-27.81v-.27c-.03-7.43-2.57-14.86-7.17-20.94-16.51-21.84-26.71-48.33-26.81-48.59-.02-.05-.04-.1-.06-.16-.09-.23-.15-.41-.24-.67-.77-2.34-2-4.77-5.8-6.67-1.85-.92-3.91-1.41-5.98-1.41h0v.02ZM162.52,595.59c1.71-.41,3.29-1.01,4.78-1.81,1.23,2.61,2.31,4.75,3.46,6.78-1.79.68-3.38,1.6-4.76,2.75-.04-.08-.08-.16-.11-.24l-3.37-7.48h0Z"/>
  </g>
  <rect x="159.6" y="591.9" width="14.71" height="14.71" transform="translate(-231.31 121.38) rotate(-24.24)"/>
</svg>