<?xml version="1.0" encoding="UTF-8"?>
<svg id="Layer_1" data-name="Layer 1" xmlns="http://www.w3.org/2000/svg" xmlns:xlink="http://www.w3.org/1999/xlink" viewBox="0 0 720 333">
  <defs>
    <style>
      .cls-1 {
        fill: #d3001f;
      }

      .cls-2 {
        fill: url(#linear-gradient-8);
      }

      .cls-3 {
        fill: url(#linear-gradient-7);
      }

      .cls-4 {
        fill: url(#linear-gradient-5);
      }

      .cls-5 {
        fill: url(#linear-gradient-6);
      }

      .cls-6 {
        fill: url(#linear-gradient-9);
      }

      .cls-7 {
        fill: url(#linear-gradient-4);
      }

      .cls-8 {
        fill: url(#linear-gradient-3);
      }

      .cls-9 {
        fill: url(#linear-gradient-2);
      }

      .cls-10 {
        fill: url(#linear-gradient);
      }

      .cls-11 {
        fill: url(#linear-gradient-10);
      }

      .cls-12 {
        fill: url(#linear-gradient-11);
      }

      .cls-13 {
        fill: url(#linear-gradient-12);
      }

      .cls-14 {
        fill: url(#linear-gradient-13);
      }

      .cls-15 {
        fill: url(#linear-gradient-14);
      }

      .cls-16 {
        fill: url(#linear-gradient-15);
      }
    </style>
    <linearGradient id="linear-gradient" x1="214.89" y1="1567.54" x2="214.89" y2="1460.32" gradientTransform="translate(0 -1394)" gradientUnits="userSpaceOnUse">
      <stop offset="0" stop-color="#fcbf30"/>
      <stop offset="1" stop-color="#fff6e1"/>
    </linearGradient>
    <linearGradient id="linear-gradient-2" x1="494.14" y1="1678.53" x2="494.14" y2="1582.16" gradientTransform="translate(0 -1394)" gradientUnits="userSpaceOnUse">
      <stop offset="0" stop-color="#fcbf30"/>
      <stop offset="1" stop-color="#fff6e1"/>
    </linearGradient>
    <linearGradient id="linear-gradient-3" x1="430.28" y1="1552.51" x2="430.28" y2="1456.84" gradientTransform="translate(0 -1394)" gradientUnits="userSpaceOnUse">
      <stop offset="0" stop-color="#fcbf30"/>
      <stop offset="1" stop-color="#fff6e1"/>
    </linearGradient>
    <linearGradient id="linear-gradient-4" x1="387.63" y1="1669.68" x2="387.63" y2="1579.93" gradientTransform="translate(0 -1394)" gradientUnits="userSpaceOnUse">
      <stop offset="0" stop-color="#fcbf30"/>
      <stop offset="1" stop-color="#fff6e1"/>
    </linearGradient>
    <linearGradient id="linear-gradient-5" x1="524.65" y1="1548.29" x2="524.65" y2="1462.32" gradientTransform="translate(0 -1394)" gradientUnits="userSpaceOnUse">
      <stop offset="0" stop-color="#fcbf30"/>
      <stop offset="1" stop-color="#fff6e1"/>
    </linearGradient>
    <linearGradient id="linear-gradient-6" x1="290.72" y1="1666.33" x2="290.72" y2="1576.6" gradientTransform="translate(0 -1394)" gradientUnits="userSpaceOnUse">
      <stop offset="0" stop-color="#fcbf30"/>
      <stop offset="1" stop-color="#fff6e1"/>
    </linearGradient>
    <linearGradient id="linear-gradient-7" x1="336.77" y1="1549.51" x2="336.77" y2="1466.11" gradientTransform="translate(0 -1394)" gradientUnits="userSpaceOnUse">
      <stop offset="0" stop-color="#fcbf30"/>
      <stop offset="1" stop-color="#fff6e1"/>
    </linearGradient>
    <linearGradient id="linear-gradient-8" x1="132.98" y1="1499.91" x2="132.98" y2="1454.35" gradientTransform="translate(0 -1394)" gradientUnits="userSpaceOnUse">
      <stop offset="0" stop-color="#fcbf30"/>
      <stop offset="1" stop-color="#fff6e1"/>
    </linearGradient>
    <linearGradient id="linear-gradient-9" x1="164.86" y1="1474.65" x2="164.86" y2="1429.94" gradientTransform="translate(0 -1394)" gradientUnits="userSpaceOnUse">
      <stop offset="0" stop-color="#fcbf30"/>
      <stop offset="1" stop-color="#fff6e1"/>
    </linearGradient>
    <linearGradient id="linear-gradient-10" x1="557.32" y1="1621.65" x2="557.32" y2="1583.58" gradientTransform="translate(0 -1394)" gradientUnits="userSpaceOnUse">
      <stop offset="0" stop-color="#fcbf30"/>
      <stop offset="1" stop-color="#fff6e1"/>
    </linearGradient>
    <linearGradient id="linear-gradient-11" x1="582.95" y1="1599.03" x2="582.95" y2="1563.73" gradientTransform="translate(0 -1394)" gradientUnits="userSpaceOnUse">
      <stop offset="0" stop-color="#fcbf30"/>
      <stop offset="1" stop-color="#fff6e1"/>
    </linearGradient>
    <linearGradient id="linear-gradient-12" x1="133.86" y1="1688.82" x2="133.86" y2="1604.94" gradientTransform="translate(0 -1394)" gradientUnits="userSpaceOnUse">
      <stop offset="0" stop-color="#fcbf30"/>
      <stop offset="1" stop-color="#fff6e1"/>
    </linearGradient>
    <linearGradient id="linear-gradient-13" x1="643.13" y1="1528.76" x2="643.13" y2="1441.61" gradientTransform="translate(0 -1394)" gradientUnits="userSpaceOnUse">
      <stop offset="0" stop-color="#fcbf30"/>
      <stop offset="1" stop-color="#fff6e1"/>
    </linearGradient>
    <linearGradient id="linear-gradient-14" x1="55.5" y1="1566.43" x2="55.5" y2="1469.55" gradientTransform="translate(0 -1394)" gradientUnits="userSpaceOnUse">
      <stop offset="0" stop-color="#fcbf30"/>
      <stop offset="1" stop-color="#fff6e1"/>
    </linearGradient>
    <linearGradient id="linear-gradient-15" x1="642.45" y1="1678.17" x2="642.45" y2="1583.29" gradientTransform="translate(0 -1394)" gradientUnits="userSpaceOnUse">
      <stop offset="0" stop-color="#fcbf30"/>
      <stop offset="1" stop-color="#fff6e1"/>
    </linearGradient>
  </defs>
  <path class="cls-1" d="M217.31,112.5c-3.01-.22.48,1.44-6.42,1.16-.71,1.39-2.78,2.04-3.88,1.46-.25-.13-.33-1.04-.12-1.21.27-.21,1.1-.52,1.18-.86l.52-2.07c.11-.43,1.09-.54,1.59-.8-.17-1.44.49-2.76,1.62-3.27l.37-1.54c.09-.38,1.12-.48,1.41-.67l1.47-2.66c.43-.77,1.15-1.49,1.85-2.01l.65-1.46c.15-.34,1.34-.27,1.45-.63l.41-1.32c.11-.37.98-.61,1.25-.89l2.46-2.5c.67-.68,1.37-1.44,2.26-1.79l.62-1.2c.18-.34,1-.37,1.68-.49l1.09-1.97,4.66.28.32,1.61c.07.37.89.41,1.71.65l.04,2.87c0,.34-.09,1.29.18,1.41l1.51.69-.05,4.71,1.69.81-.28,5.1c-1.91-.3-2.48.33-3.37,1.36-.92.21-2.54.06-3.77-.09l-1.62,2.05-4.35-.14c-1.27,3.95-4-.26-5.87,2.8-.35.58-1.28.68-2.28.6h.02ZM226.33,101.73l4.9.11c.16-.6.48-2.1,0-2.51-.54-.47-1.2-.66-1.23-1.05l-.11-1.61c-.02-.33-1-.35-1.16-.04l-.73,1.4-1.72,1.58-3.01,2.78c-.15.53,1.09,1.14,1.65,1.09.48-.04.97-.93,1.4-1.75h.01Z"/>
  <path class="cls-1" d="M607.52,193.41c-.37-.15.27-2.32-.23-2.6l-1.11-.61-1.47-2.14c-.23-.33-.27-1.39-.63-1.52l-1.52-.58c.25-1.04.66-2.74.94-3.77.2-.69,1.43-1.64,1.08-2.7-.15-.45.59-1.3,1.02-1.65l.47-5.87-4.1-4.58c.02.19-5.78-1.13-5.82-1.05-.44.81-5.97.03-6.93,2.48-.76.19-2.64.13-3.31-.17-.22-.59-.42-1.84-.83-2.02-.41-.18-1.09-.26-1.86-.4l-.64-1.88-2.93-.5-.62-1.91-4.9-.27c-.31-.02-.96.55-1.04.81l-.29.92c.03-.1-2.9-.14-2.69,5.74l-1.93.78c-.25,2.84.11,5.59.58,8.44l-2.55.23c-1.8,3.95-.24-.09-3.67,3.13-.23.22-1.44.23-1.49.55l-.22,1.45c-2.84.11-1.68,4.85-2.45,3.6l-.42-.68c-.07-.11-.22-.89-.57-.96l-.82-.16c-1.94-.38.49-2.47-2.65-2.41-.59,0-1.76-.08-1.94-.49l-.63-1.48-5.53-.14c-.32,1.43-1.28,1.77-2.17,2.19l-1.21,3.05-2.24-1.38c-.32-.2-.05-1.54-.43-1.61l-1.82-.34c-.39-.08-.52-.92-.74-1.63-.35-1.13-3.38.38-3.63-1.2-.09-.55-.14-.91-.21-1.14s-.84-.29-1.1-.31l-3.53-.16c-.35,0-1.13-.09-1.17-.38l-.19-1.19c-.05-.33-.67-.8-1.01-.82l-8.58-.39c-.09-1.14-.33-2.1-1.07-2.13l-14.79-.62-1.11,1.98-7.88-.4c-.99-.05-1.48.7-1.65,2.02l-6.81-.1c-1.25,4-3.19-.26-5,3.1l-2.74.33c-.39.64-.92,1.36-1.38,1.33-.59-.03-1.62-.16-1.79.18l-.65,1.25-2.48-.07-.99,1.92c-1.95-.85-2.43,1.1-3.56,1.66-1.01.5-1.85,1.01-2.45,1.82-.6.23-1.64.67-2.18,1.14l-2.24,1.94-2.05,1.78c-.67.58-1.42,1.17-2.06,1.89l-2.06,2.28c-.69.77-1.7,1.45-1.92,2.75-.38.27-1.54.38-1.65.82l-.52,2.08-1.39.66c-1.19.56.65,3.36-2.79,3.38l.32-9.45c.01-.41-.07-1.22-.36-1.33l-1.41-.52c-.96-.76.42-3.92-.61-4.48l-1.12-.61-1.21-2.55c-.34-.71-1.04-1.2-1.81-1.45l-.59-1.31c-.15-.32-1.21-.42-1.56-.57l-.87-2.02-2.28-.46c-.36-.85-.89-1.94-1.46-2.21-.7-.32-1.77-.26-2.9-.22l-.93-2.51-5.62-.38-.1-2-9.18-.49-.86-1.86-18.72-.72-1.07,1.95-9.33-.27-1.1,1.98-5.36-.15-.79,1.56c-.38.75-3.46-.71-4.14.64l-.74,1.45c-.34.67-3.81-1.5-5.03,2.18l-2.15.17c-.45.04-.62,1.35-.85,1.67-1.44.02-2.47.51-3.44,1.4l-2,1.85-1.62,1.37c-.17.13-.56.48-.59.32l-.15-.91c-.1-.64-.22-1.32-.51-1.57-.23-.2-1.28-.15-1.4-.42-.35-.82-.09-2.8-.26-3.65l-1.6-2.56-1.55-2.48c-1.17-.44-2.09-.89-2.23-2.36l-2.32-.54-.73-2.07-5.17-.26-.75-2.01-4.61-.31c1.53-4.76,4.8.92,7.94-3.9,1.06.21,2.46.39,2.83-1.02.2-.79,1.59-.86,2.03-1.27l2.35-2.22,1.99-1.78,2.01-2.03c.76-.76,1.29-1.37,2.38-2.02l.49-2.38c.63-.16,1.76-.4,1.85-.85l.37-1.76c1.06-.53,2.15-1.65,1.93-3.04.4-.29,1.5-.38,1.61-.8l.5-1.97c.98-.46,2.34-1.19,1.62-2.85l1.81-1.23c-.03-.74-.15-1.53.05-1.87.2-.34.97-.7,1.47-1l.68-2.79,1.6-.55c1.21-.41-.45-2.98,1.69-3.76,2.69-.99-.66-3.78,3.27-5.12l-.19,3.35,1.84.79-.2,7.96c3.69.52,1.01,4.69,2.21,5.69.41.38,1.59.85,1.61,1.32.03.56-.2,2.02.21,2.23l1.7.87.1,2.76c1.9-.17,1.46,1.72,2.21,2.33.82.68,1.42,1.38,1.66,2.48l1.37.51c.28.11.28,1.19.36,1.52l2.19,1.21c.2.47.31,1.4.68,1.5l1.7.49c.32,1.14,1.64,1.5,2.55,2.08,1.08.68,1.48,2.6,3.57,1.63l1.21,2.34c1.67-.41,2.62.07,3.03,1.59l4.25.2,1,1.96,8.77.43.52,2.19,7.54.23,13.09.55,1.07-1.78h7.36c1.77-3.12,2.8.67,4.88-2.65l3.25-.07c.52-1.47,1.4-2.21,3.06-1.79.59.15,1.52-.95,2.1-1.21.91-.39,2-.62,2.27-1.89l2.81-.32c-.11-2.03,1.74-1.68,2.51-2.5,2.51-2.69.77-.4,4.84-3.93.43-.37,1.11-1.44,1.52-1.86l2.3-2.31c.41-.41.48-1.82,1.45-1.93.44,1.21.96,1.74,2.26,2.17l-.08,3.92c1.87.08,1.8,1.98,2.68,2.68.96.76,1.53,1.51,2.31,2.55.56.74,2.8.46,2.36,2.62l6.03.46c.15.91.38,1.73.81,2.18l24.56,1.04,1.62-1.57,18.75.59c.58-.57,1.65-1.46,2.3-1.45l9.37.16c.65-2.75,3.62-.52,4.29-1.54l.72-1.1c1.12-.15,2.14-.84,3.01-1.8l2.16-2.37c.7-.77,1.05-1.15,2.34-1.64l.16-3.29c.03-.62.53-1.27,1.17-1.31.4-.03,1.28-.45,1.29-.81l.55-10.42-2.1-.84v-4.41c-1.18-.52-1.78-1.26-1.75-2.46l-1.75-.81c-.13-1.04-.52-1.69-1.39-1.8-2.28-.32.42-2.2-2.48-2.47l-3.74-.34-1.1-2.4,2.18-2.52c.41-.48,1.5-1.28,2.06-1.71,3.49-2.69-.89-5.74,3.61-5.93l.6-9.98c.02-.32-.46-1.08-.79-1.17-2.29-.6-.65-2.28-1.24-4.44l-2.16-2.71c-.19-.24-1.1-.51-1.04-.82l.19-1.19,4.25.13c.59.02,1.14-1.15,1.38-1.99l3.85-.09c.63-.01,1.37-1.38,1.83-1.77.29-.24,1.34-.29,1.51-.62l.73-1.44c.14-.27,1.3-.07,1.37-.36l.36-1.49,1.87-.91.34-4.26,2.22-1,.58-10.54c.08-1.39-2.21-.52-2.19-1.72l.07-4.12-1.87-.73-.16-1.77c-.03-.4-1.46-.3-1.61-.66l-.85-2.03c-1.49.06-2.5-.4-2.7-2.1l-5.17-.35c-1.68-.11-.2-2.28-1.4-2.33l-25.18-1.04c-.46-.02-1.03,1.24-1.25,1.86l-7.49-.23-12.46-.55c-.22.7-.8,2-1.36,1.98l-7.43-.23c-.49.76-.92,1.59-1.36,1.85-.44.26-1.56.1-2.48,0-.67-.07-1.47.81-2.1,1.15-.86.47-1.83,1.18-2.43,1.81-.25.27-1.35.34-1.49.68l-.6,1.45c-.85.44-1.56,1.09-1.7,2.25l-1.93,1.42-.44,4.16c-1.44.15-1.96.88-1.97,2.35l-1.51-.34.12-4.44-1.8-.98c.47-2.04-1.19-2.98-2.06-4.17-1.17-1.61-2.74-3.58-4.54-4.25-.25-.32-.33-1.58-.74-1.63l-1.51-.21-1.09-2.13-3.9-.28-.56-2.16-5.67-.41-.59-2.12-9.62-.34-.51-2.25-13.25-.59-1.12,2.13-9.27-.42-.88,2.07c-1.89.05-3.61.04-5.57-.1-3.72-.27.36,2.46-6.11,1.99-.57-.04-1.6-.03-1.68.37l-.32,1.66-3.9.43c-.25.71-.47,1.39-.72,1.73-.21.29-1.21.12-1.66.07-1.6-.18-.07,2.59-3.4,2.1l-1.19,1.93c-.66-.02-1.31-.16-1.47.12l-.77,1.38-1.64.65-.74,1.44-1.52.49-.72,1.4c-2.09,1.04-3.61,3.4-4.62,4.77-.34.47-1.54.97-1.57,1.53-.04.82-.2,1.31-.51,1.28-.44-.04-1.24-.03-1.24-.34l.03-1.26c.02-.97.08-2.36-.08-2.97-.85-.85-1.31-1.61-1.92-2.41l-1.53-1.99-1.85-2.49-1.66-.54c-.37-.12-.36-1.01-.53-1.77l-4.92-.26-.59-2.13-9.46-.42-.91,1.95h-5.27c-.05,1.95-1.49,1.57-2.42,2.31-4.42,3.55-2,2.43-5.41,5.31l-.36,3.46-2.07.83-.34,3.82c-3.76,1.67.3,4.39-3.89,6.07l-.23,4.07c-.04.65-1.42,1.39-1.95,1.78l-1.09,4.3c-1.19,4.68-2.23-.14-2.6,6.71-1.94.23-1.52,1.92-2.17,3-.76,1.25-2.26,1.58-1.92,3.63.13.79-1.05,1.6-1.98,1.97l-.31,2.02c-.05.35-.41,1.02-.62,1.23-.18.17-.84-.19-.92-.42-.09-.23-.1-.57-.08-.97l.13-3.28-2.05-1.04.21-5.69-1.96-1.19.19-5.01-1.85-.77-.08-6.94-1.9-.48.11-4.24-1.85-.64-.16-1.58c-.04-.31-.78-.52-1.16-.73l-.54-1.81c-.77-.3-1.42-.54-1.75-.79-.27-.22-.15-1.35-.48-1.44l-1.79-.51c-.38-.11-.37-1.04-.52-1.87l-5.24-.46-.77-2.01-9.16-.38-1,1.86-5.14.06-.97,1.61c-.22.36-1.75,0-1.9.4l-.48,1.33c-.1.27-.99.26-1.24.49-.94.88-2.07,2.48-2.94,3.41-.96,1.03-1.62,1.69-1.45,3.35.04.38.08,1.61-.27,1.73l-1.67.58-.49,4.36c-.37.05-1.48.03-1.56-.28l-.44-1.64-8.28-.43c-2.02-.1-1.24,2.51-2.88,1.82-.31-.13-.3-.83-.33-1.39l-.09-1.92c-.02-.41-1.15-.44-1.6-.63l-.14-3.44c-.69-.72-.99-2.06-1.2-2.93-.11-.48-1.6-.83-1.57-1.32l.11-1.89c.03-.45.04-1.34-.31-1.46l-1.71-.65c.22-1.74-.35-3.6-1.85-4.4-.02-.65,0-1.61-.33-1.81-.26-.16-.91-.5-1.15-.69-.29-.22-.08-1.37-.39-1.56l-1.37-.8c-.2-1-1.04-1.65-1.73-2.33-1.09-1.07-1.67-2.53-3.57-2.19-.25-.65-.4-1.93-.92-2.03l-2.49-.48-.72-1.95-6.04-.26-.33-2.16-11.58-.49-.93,2.02-6.06-.19-1.08,1.71c-.4.63-3.2-.41-3.7.45l-.69,1.2-3.01,1.14c-1.11.42-1.95.9-2.57,1.82l-1.59.38c-.35.08-.45,1.23-.79,1.35l-1.78.6c-.34.12-.22,1.35-.58,1.39l-1.82.19c-.4.04-.4,1.31-.72,1.58l-2.17,1.83c-.82.7-1.93.91-2.04,2.23l-1.36.48c-.28.1-.51,1.17-.67,1.45-.82.31-1.9.89-1.74,2.18.07.49-1.55.63-1.56.2l-.09-3.35-1.93-.5c-.29-.08.03-1.04.12-1.47.5-2.18-1.93-1.57-1.99-3.18-.02-.49.1-1.52-.23-1.68l-1.18-.55c-.23-.94-1.72-3.83-2.66-4.3l.47-3.56c3.63-1.96,1.72-2.46,2.54-5.99.43-.24,1.81-.88,1.84-1.44l.36-6.87c-.75-.21-1.77-.17-1.79-.57l-.11-1.75c-.03-.47-.91-.59-1.83-.57l-.41-2.17-6.16-.36c-.58-.04-1.25,1.25-1.51,1.78l-5.37-.18-.91,1.68-4.11-.24c-.13-.77-.2-1.66-.55-1.68l-1.31-.11c-.49-.04-.28-1.6-.67-1.9s-1.64-.37-1.72-.8l-.32-1.74-2.59-.73-.4-1.49c-.12-.45-2.67-.09-2.76-.64l-.26-1.68-6.21-.3-.64,1.52c-.11.26-1.08.3-1.29.5-.26.24-.31,1.31-.66,1.39l-1.48.33-.41,4.48-1.51.61c-.28.11-.4,1.12-.42,1.45l-.3,7.96,1.17.43c.17.07,0,.79-.18.93-1.88,1.49-3.73-.12-4.26,1.24l-.51,1.32-3.33.11c-.22,1.6-.99,1.61-1.81,2.26l-3.79,2.97-.49,1.2c-.12.28-1.27.29-1.33,0l-.29-1.49c-.11-.6-1.62-.51-2.48-.53l-.59-2.06-6.59-.07c.19.37-3.13,3.57-2.32,3.34l-1.39.39-.34,4.58-2.07.56-.4,8.7,1.06.92-2.12,1.91h-3.83l-.38,1.59c-.05.23-.77.24-1.13.17-1.2-.22-1.65.97-2.36,1.37-1.26.69-5.11,2.35-4.13,4.85l-2.17.6-.31,6.63,1.89.58c-.1.74-.26,1.61.14,1.77l1.69.64c.34.13.09,1.36.38,1.58.92.69,3.04.2,3.26.82l.57,1.68,4.11.31.57,2.07,3.26.29v3.26l1.64.85-.32,5.27,1.78.92-.02,4.51,1.64.66.4,1.36,1.44.62c.31.14.4.99.64,1.63l6.82.46.6-1.61c1.16-.04,4.12-3.88,3.63-3.97l.78.14c.41.07,1,.21,1.05-.07l.26-1.49c.05-.1.26-.55.26-.55.78-.05,1.59-.06,1.73-.43.11-.3.27-1.23.44-1.52l1.61-2.64,6.27.3.74,1.94,10.76.36c.17-1.48,1.45-2.04,2.44-2.22.27-.26.37-1.43.72-1.52l1.55-.36.4-6.93-1.69-.68c-.37-.15-.12-1.17-.05-1.84.23-2.09-1.98-.92-1.78-2.42.2-1.57,2.19.78,4-1.74.47-.66,1.5-1.14,2.26-1.58.6-.35,1.38-1.62,1.88-2.15l1.88-1.98c.73-.76,1.42-1.77,1.91-2.71.43-.49,1.56-1.55,2.11-2.04,1.31-.25,3.63.01,4.86.25.2.63.31,1.46.65,1.62.27.13,1.01.23,1.39.24l7.52.29c-.16.81-.15,1.63-.5,1.71l-1.68.4-.6,2.87c-3.72,1.25-.06.74-3.36,2.94-.75.5-.94,2.59-1.48,3.28-.49.38-1.42,1.04-1.66,1.5l-1.42,2.76c-3.78,1.37.96,1.88-4.27,5.25-.15,1.56-.65,3.6-2.33,4.23-.39.66-.53,2.04-.62,3.05l-1.78,1.08c.22,1.49-.41,2.47-1.85,2.83l-.38,3.12c-1.63.24-3.07.35-4.64.28l-10.91-.5-.9,2.05-4.35-.06c-2.12,2.99-.22-.29-3.29,2.55l-2.02,1.87c-.58.53-1.4,1.69-1.86,2.31-3.89,1.93.52,5.37-4.04,6.05l-.62,10.88,2.13.92-.13,5.01,1.69.6c.28.1.18,1.13.44,1.26.71.37,1.51,1.82,2.12,2.28l2.4,1.79c1.01.76,2.69.48,2.47,2.62l3.3.34-.3,4.3-2.27.66-.63,11.91,2.23.96-.05,4.68c1.12.68,1.92,1.28,2.18,2.55l1.71.81c.11.71.25,1.73.7,1.87l1.7.53.9,1.93,5.04.35.46,2.07,10.17.49.97-2.02c1.37-.49,5.01.63,5.38-.3l.67-1.67c1.68.49,2.09-.58,3.22-1.61l2.99-2.72c.18-.17-.02-1.09.12-1.3.42-.63,2.2-.12,2.22-1.08l.02-1.39c0-.58.03-1.93.49-2.15l1.79-.85.47-6.21,2.15-.49.67-5.75c.17-1.46,1.03-2.25,2.4-2.48l.62-3.94.46-2.92c3.05-1.2,4.74,1.15,5.88-2.12l6.43-.2.73-1.7,4.37.03c4.03-3.55,5.2,1.03,7.28-3.23l4.6.15c2.21-3.79,4.64.43,6.62-3.19l3.54.03,1.9-1.85c.24.17.69.51.71.62l.71,3.97c.31,1.69-.03,3.55.03,5.28l1.98,1.19-.12,8.28c.79.28,2.09.72,2.16,1.28.11.79-.22,2.34,0,2.99l.87,2.35c1.48-.19,1.32,1.78,1.95,2.21.81.55,2.18,1.35,2.53,2.42.41.23,1.49.6,2.01.8l.69,1.42c.17.35,1.25.4,1.69.43l3.2.24.82,2.12,9.23.35c.19,0,.73.43.75.58.22,1.04-2.74.51-3.25.46-.93-.08-1.98.59-2.84.73-1.79.31-3.86.06-5.74.11l-1.34,1.8-7.07-.12-1.16,2.06h-4.42c-.63,1.27-.91,1.49-1.96,1.76-1.82.47-3.08,2.28-4.36,3.5-.9.85-1.52,1.44-1.63,2.59l-1.85.72-.36,4.69-2.32.44-.54,11.25,2.28.95-.15,5.13,2.24.9.23,1.79c.04.29,1.08.4,1.23.66l1.19,2.07c.84.08,1.82.07,2.19.34.37.26.53,1.15.8,1.95l5.32.43.61,2.04,11.15.44,1.12-2.03,4.55.27c1.16.07,1.84-.29,2.56-1.31l3.38-.1c.63-1.2,2.34-1.71,3.18-.87l-.44,10.03-.98,18.5c-.04.69,1.15,1.68,1.73,2.18l-.56,12.05,1.94,1.35-.03,6.14c.63.22,1.95.42,1.97.87l.07,1.74c.02.61.09,1.34.3,1.66.17.26,1.25.17,1.32.47l.43,1.97c.08.37,1.2.6,1.4.94.47.9,1.56,2.12,2.41,2.6.35.2.52,1.52.91,1.56l1.91.16.63,2.13,5.38.3.56,2.3,11.2.37.9-2.04,5.12.29c1.15-3.28.4.29,4.44-3.82l1.8-1.84c4.17-4.25.84-2.77,4.38-4.42l.51-4.66,2.12-1,.49-11.2-1.87-.86-.1-4.05c-.09-.98-1.67-2.57-2-3.58-.16-.49-.39-1.22-.58-1.54-.15-.25-1.2-.17-1.27-.46l-.47-1.9c-.09-.35-1.59-.42-1.57-.83l.83-20.9c-.58-1.11-.93-2.11-.88-3.23l.33-7.01h9.83l1.15-1.85,11.56.29c1.29.03,2.14-.18,2.86-1.29.64,1.89-.7,2.76-2.19,3.81l-.65,7.06c-.05.51-1.39.97-2.17,1.16l-1.01,19.53,2.12.99-.05,9.3c.68.31,1.96.95,2.01,1.55l.35,4.6c.69.33,1.58.73,1.94,1.05.64.58-.37,2.79.53,3.17l1.37.57c-.22,1.9.95,3.76,2.74,4.5.08.51-.04,1.29.27,1.5l1.29.88c.25.9,1.14,1.76,2.02,2.26.3.35.43,1.49.85,1.64l1.62.58c.3.96,1.04,1.92,2.28,1.87l1.08,1.9,3.12.6c.18.78.21,1.92.68,2,1.5.26,3.6.17,3.89.65.23.39.4,1.14.62,1.91l5.48.51.66,1.98,9.38.45.35,2.13,22.4,1.01,1.14-2.09,9.09.28.88-2.03,5.63.13c.42-.88.68-1.52.98-1.85.42-.47,3.38.47,3.87-.3l.91-1.46c.53-.86,3.44.39,3.99-.67l.76-1.46,2.02-.27c.44-.06.69-1.16,1-1.54,1.49.14,2.29-.71,3.3-1.55.9-.75,1.75-1.45,2.34-2.57.36-.12,1.33.02,1.47-.32l.56-1.41,1.84-.75c.26-.77.56-1.64.8-2.14.22-.44,1.4-.59,1.93-.49l.25,2.64c1.45.21,1.98,1.16,1.66,2.58l1.9,1c-.02.35-.36,1.35-.04,1.46l1.63.59.27,1.68c.65.23,1.48.37,1.6.71l.52,1.55c1.12.21,1.93,1.15,2.13,2.29,3.69.38.92,2.15,4.98,2.8.28.44.41,1.55.87,1.63l2.06.33,1.05,1.92,3.86.53.89,2.09,5.97.37.48,2.12,9.12.49.5,2.17,23.31.93,1.03-2.05,8.41.16,1.07-1.75,5.1.04c.4-.75.68-1.3.9-1.63.22-.33,1.38-.22,1.85-.15,1.37.2,2-.81,2.35-2.12l3.09-.03c.44,0,.86-1.3,1.04-1.75l2.96-.17c.31-1.63,1.39-2.09,2.78-2.1l.75-1.82c.77-.13,1.58-.23,1.63-.63l.22-1.51c2.18.16,3.76-1.77,4.48-3.62.22-.15,1.3-.13,1.4-.48l.47-1.59c1.55-.45,3.66-3.07,3.03-5.08.87-.83,2.96-1.83,3.06-3.42l.18-2.87,2.23-.85.34-7.64,2.22-.54.7-12.7-2.16-1.22.08-5.06-1.43-.84c-.28-.16-.18-1-.07-1.42l5.96.17c.29-1.31.74-1.56,1.54-2.12l2.44-2.19c.24-.21,1.08-.4,1.15-.7l.26-1.07c.58-.53,1.24-1.5,1.67-2.22.21-.34,1.2-.86,1.2-1.25l.03-1.53,3.79.07.88,1.44,9.11.44c0-1.71,1.53-1.64,2.28-2.32.73-.66.87-2.11,2.46-2.21l.42-6.82-1.81-.68.02-3.32,2.37.21c.19-.74.25-1.58.64-1.66l1.44-.31c.38-.79,1.06-1.49,1.79-2.01l.3-1.75c.06-.37,1.12-.32,1.57-.49l.12-2.84,2.99.03.37,1.66,8.86.35c.75-1.15,1.8-1.69,2.7-2.42l2.16-1.73.41-6.48-1.54-.62v-.07h.01ZM485.78,121.8l1.15-18.59,2.02-.87.71-11.1,1.1-1.31.44-7.05,1.73-.6.79-8.08c1.43-.42,2.11-1.34,2.01-2.75l1.93-2.09c.75-.81,1.33-1.4,2.36-1.76.29-.37.57-1.46,1-1.53l2.12-.36,1.5-1.91,6.58.26.97-1.84,16.79.54,2.78-1.6,26.91,1.06.59,1.79,3.99.44.68,2.18c1.47.11,2.12,1,1.97,2.37-.03.21-.06,1.03.14,1.09l1.56.47-.57,9.96c-3.86,1.01.16,2.87-4.28,4.45-.29.42-.55,1.39-.96,1.55-.48.2-1.73.26-2.4.31-.74,1.34-1.79,2.03-3.47,1.95l-15.51-.74-11.96-.32c-1.24,1.27-8.07,1.49-10.07,1.5-.54,0-.84,1.23-.82,1.96.13,4.04-1.74.21-1.48,6.42,8.31,1.34,8.69-1.58,14.87-1.31l14.37.63.37,1.61c.09.39,1.18.47,1.64.53l1.17.13c.29.03.28.97.38,1.29l1.92,1.67.07,2.04c.01.41,1.01.52,1.65.7l-.43,9.08-1.89.76c.47,2.08-.92,2.8-2.18,3.85-.88.73-1.09,2.36-2.92,1.54l-1.89,1.92-19.09-.55c-1.29.53-3.04,1.37-4.6,1.33l-6.95-.2-.45,2.74c-.45,2.75-.9,5.19-.55,8.1,5.04.11,9.91.83,14.7.06,2.39-.39,4.48-1.19,7-1.09l17.55.7.37,1.63c.06.29.91.35,1.26.32,1.57-.12,1.71,1.04,2.43,1.97.81,1.01,2.43,1.4,1.37,3.53l2.09,1.06-.58,9.1c-1.29.31-1.76,1.46-2.15,2.39-.28.66-1.7,1.4-2.1,2.17-.65,1.24-2.16,1.45-3.42,1.43l-.7,1.43c-.18.38-1.26.5-1.77.48l-8.64-.26c-.77.8-1.78,1.52-3,1.47l-18.6-.66c-1.28-.04-2.36.55-3.24,1.35l-20.47-.65-.65-1.61c-.29-.71-2.96-.14-3.75-.94-.03-1.51-1.12-2.16-2.33-2.24l-.44-2.17c-3.07-1.12-1.02-3.84-1.89-4.27l-1.59-.78.2-8.88.72-16.34,1.83-.85h.01ZM148.97,99.41c-.11-.65-.55-1.9-1.1-1.92l-7.81-.35-.5,1.8c-.1.35-1.05.53-1.29.79l-1.86,2.2-2.14,2.54c-.97,1.15-1.7,2.5-3.17,2.89l-.58,1.88-3.55-.18c.03-1.25-.5-2.12-1.32-2.69l.09-4.93c-1.36-.54-1.56-.99-1.5-2.11.12-2.64.12-4.92.07-7.68l-3.91-.43c-.12-.39-.51-1.72-.93-1.76l-4.07-.37-.47-1.69c-.11-.39-1.23-.14-1.7-.23l-2.02-.37c-.43-.08-.41-1.32-.56-1.81l-2.66-.32.26-3.02c1.16-.4,1.63-.96,1.86-2l2.23-.16c.82-1.62,2.49-2.49,4.37-2.27l.97-1.85,3.19-.26c.91-.87,1.57-1.24,2.78-1.68.64-.74-.34-2.64-.35-3.8-.04-2.29.07-4.72.16-6.91.35-.13,1.55-.64,1.57-1l.33-5.13c1.31,0,2.87.08,4.06.21.12.81.12,2.04.59,2.13l1.83.34c.38.07.42,1.01.63,1.61l2.14.56.57,1.47c.14.35,1.27.34,1.8.43l.16,1.51c.05.44,1.23.74,1.95.81l.37,2.07c7.98.59,5.57-1.63,8.82-1.81,1.28-.07,1.75.59,2.27,1.83l4.76.4.02,6.48c0,.47-.78,1.33-.99,1.73-.65,1.22-1.15,2.75-1.97,3.82-.47.61-1.19,1.28-1.27,1.89-.27,2.23,3.45,2.18,2.42,5.75l2.13.95.02,2.71,1.46.61c.84.35-.11,2.85.48,3.02l1.63.48-.16,4.19-10.12-.36h0ZM190.33,73.98l-9.62-.2-.75-1.69-7.79-.36-.46,1.81-1.37.55c-.42.17-.48,1.49-.72,1.89-.18.31-1.22.31-1.35.65l-.71,1.85c-.17.44-1.53.58-1.67,1.01-.15.44-.27,1.19-.39,1.92l-2.13.3-.43,2.16-3.92-.22-.36-5.84-1.1-.62c-.26-.15-.17-.96-.18-1.39l-.12-3.86.09-5.1-3.06-1.13c-1.39-.52-3.54-.21-5.22-.41l-.59-1.98-4.37-.31-.45-1.96-3.17-.15.04-3.45c3.43-3.28,3.1-.96,4.02-3.75l2.7-.03c.31,0,.48-1.08.69-1.31.27-.28,1.33-.09,1.73-.29l2.4-1.27,2.21-1.1c1.82-.9.11-3.23.12-4.41l.03-5.78c0-.69.69-1.42,1.45-1.84l.5-5.48,3.36.13.32,2.03,2.5.3.42,1.96,1.53.12c.33.02.3,1.19.36,1.74l2.32.56.23,1.92c.06.5,1.69.43,2.14.53.19,1.02.33,2.25,1.16,2.31,1.32.09,2.15-.04,2.58-1.29h3.44c2.47-2.73,4.77,1.2,6.29-2.48l4.85.27-.39,5.13c-3.06.67-.82,2.84-2.49,6.32l-1.14.21c-1,.19.62,2.38-1.48,3.56-.33.19-.9,1.09-.71,1.39l.94,1.46c.53.83,1.06,1.32,2.15,1.88l.11,2.88,1.72.59c.11.54.2,1.33.41,1.61.21.29.92.39,1.52.59l.04,3.58,2.04.4-.26,4.08h-.01ZM482.34,94.06c-.99,2.13-.44,7.15-1.44,7.05l-2.63-.25-.43-1.68c-.1-.37-1.04-.37-1.82-.5l.55-1.92c4.35.66,2.54-2.5,5.78-2.7h-.01,0ZM383.6,105.03l1.01-8.08,1.8-1.28.23-3.64c3.03-.31,1.24-3.62,2.13-3.96l1.58-.6c0-1.64.87-2.65,1.84-3.88.92-1.16,1.26-2.92,2.86-3.63l.49-1.82c.89-.57,1.69-1.12,2.32-1.88l1.93-2.31c.43-.51,1.4-1.44,1.91-1.86l2.43-1.97,2.28-1.85c.64-.52,1.66-1.33,2.3-1.73l3.2-2.02c.96-.61,1.79-1.16,2.75-1.84.77-.55,2.79-.24,3.35-1.54.67-1.58,3.55-.28,4.07-1.11l1.05-1.69,5.81.05c.28-.65.89-1.9,1.4-1.88l8.66.29c.5-1.23,1.03-1.97,2.15-1.91l11.99.57.43,2.04,8.83.37.44,1.95,3.81.28.95,1.92,2.39.25,2.33,1.99c.69.59,1.5,1.31,2.35,1.95.76.57.56,2.39,2.37,2.02l.29,2.13,1.49.71c.57.27-.11,2.3.28,2.71.24.24.85.43,1.71.71l-.53,10.43c-3.74.87.78,1.77-5.66,5.24-.32.22-.41,1.4-.79,1.43l-1.93.15c-.49.04-.91.96-1.25,1.85-2.77.1-6.31-.03-9.09-.27l-.65-1.72c-.22-.57-2.93.09-3.21-.85-.11-.35-.31-1.26-.46-1.6-.16-.35-1.48-.23-1.84-.38-.43-.18-.52-.95-.78-1.86l-4.96-.44-.56-1.88-11-.57-1.24,1.68-5.22.08c-2.05,4.44-3.66-.38-5.25,3.63l-2.13.49c-.18,1.4-1.4,1.6-2.19,2.32l-2.42,2.21c-.66.6-1.51,1.56-2.16,2.29l-2.02,2.27c-.68.76-.84,2.62-2.33,2.93-.51,3.5-1.67,2.84-1.5,4.69.16,1.65-.38,2.17-1.91,2.59l-.62,11.77,1.51.69c1.22.56-1.59,4.05,2.71,6.55l.33,2.21c1.32.2,2.07.84,2.31,2.3l2.53.33,1.09,2.03,4.92.3.68,2,11.6.44,1.61-1.73,4.67-.07c1.63-3.68,2.02-.14,5.36-4.35l1.76-2.21c.25-.32.56-1.19.88-1.35l.94-.47c.27-.14.35-1.14.06-1.22l-1.26-.35c-2.01-.56-2.95.64-4.3,1.07-3.63,1.16-8.11.11-11.77.09l-.78-1.84c-.23-.56-2.44.99-4.78-2.96-.2-.34.04-1.65-.31-1.79l-1.69-.67.35-8.95,1.57-.7c.42-.19.33-1.73.63-2.07l2.28-2.53c.74-.82,2.73-.44,2.81-2.34l3.5.02c.59-1.68,1.7-1.55,3.2-1.49l28.85.94.26,1.76c.1.72,2.74.06,3.57.6.38.25.55.91.91,1.81l1.98.3.41,2.29c.48.19,1.5.27,1.61.66.46,1.55-.15,3.2.24,3.35l1.75.66-.62,13.36-1.87,1.29-.68,6.54-1.66.67c-.41.16-.48,1.48-.34,2.07.31,1.34-1.52,2.2-2.14,3.15-.68,1.03-.99,2.52-2.04,3.51-.66.63-1.09,1.44-1.62,2.13l-1.71,2.25c-.45.6-1.57,1.69-2.12,2.26-.26.27-1.41.23-1.54.59l-.58,1.57c-1.43.15-2.36,1.19-3.4,2.13-.77.7-2.69.09-2.56,2.13l-2.94.22c-1.18,3.79-3.79.62-4.74,2.72-1.41,3.12-4.1-.95-5.36,2.6-3.72,1.32-7.35-1.74-8.31,2.04l-19.08-.74c-.54-.02-1.07-1.35-1.3-1.97l-8.2-.52c-.86-3.61-3.16-1.55-5.08-2.63l-.66-1.66c-.15-.37-1.33-.41-1.75-.41-1.35.02-2.04-.6-2.1-2.09l-2.75-.6c-.13-.51-.19-1.54-.56-1.64l-1.68-.46c-.05-1.05-1.38-1.65-1.81-2.23l-1.92-2.63c-.49-.67-.87-1.44-1.53-1.88-1.79-1.19-.35-2.41-1.01-2.79l-1.48-.85-.2-2.52c-3.48-1.6.42-4.21-3.14-5.52l-.27-4.67c-.03-.53.05-1.48-.08-1.85-.14-.37-.95-.49-1.57-.73l.8-19.06c.06-1.51,1-2.3,2.05-2.96l.05-.07h0ZM422.62,109.04c-.33.19-.93.32-1.82.55l-.64,11.3,1.8.95c.94.49-.17,3.52.59,4.5.99.36,2.64.68,1.87,2.13-.4.76-2.19-.27-2.76-.81l-1.72-1.64-.22-1.26c-.07-.38-1.6-.5-1.65-.89-.05-.44-.11-1.57-.15-2.13-.03-.52-.87-.81-1.63-1.29l.58-10.65,1.91-1.13.33-2.79,1.8-1.18c.4-.27.25-1.52.31-2.1l5.28-5.47,3.35-2.21,2.29-.69c2.34-3.9,4.18.75,6.4-3.35l9.92.41.47,1.76c.23.85,3.9-.63,3.71,2.21l-13.65-.33-.94,1.93-5.77-.22c-.24,1.83-2.37,2.25-3.75,2.45l-.67,1.43c-.17.38-1.26.53-1.56.85-.54,1-1.83,2.5-2.8,3.31-.84.3-.06,3.88-.89,4.34v.02h.01ZM292.72,84.17l.56-2.55c1.06-.55,1.73-1.56,2.22-2.41.4-.26,1.6-.63,1.88-1.07,1.81-2.91,2.97.78,4.34-2.96l8.4.46.32,1.56c.09.4,1.28.43,1.9.34,1.05-.15,1.61,1.21,1.97,1.98l1.42.49c.36.13.2,1.26.48,1.53.41.39,1.48.98,1.78,1.44s.07,1.6-.02,2.44l1.91,1.15-.16,5.44,2.01,1.08-.1,5.27,1.95,1-.08,5.95c1.05.59,2.03,1.66,1.96,2.86l-.23,3.99,2.09,1.12-.19,5.66,1.91,1.1-.06,3.34,1.47.76c.32.17.11,1.36.17,1.79.03.23.86.47.97.28.14-.27.43-.86.64-1.2l1.78-2.9c.46-.75,1.99-1.25,1.61-2.76,4.27-2.84-.53-.68,3.86-5.22.69-.71-.01-2.85,1.84-2.83l.38-3.07c4.29-.98-.32-3.47,4.05-5.31.08-6.47,2.75-3.86,2.52-6.19-.17-1.67.29-2.58,1.93-2.94l.21-3.64c4.52-1.87-.04-5.02,4.18-7.01l.47-3.42c3.97-2.78-.52-4.83,3.89-6.73v-1.68c0-.41,1.01-.75,1.24-1.1.5-1.07,1.19-1.46,2.21-2.01.95-.52,1.02-2.11,2.93-1.37.67.27,1.38-.68,1.7-1.66l8.57.32.37,1.66c.08.38,1.08.29,1.6.34l1.63.15c.4.04.44,1.1.59,1.6,1.68,1.02,3.16,2.77,2.54,5.05l1.83.85-.49,9.79c-.08,1.53-1.73,2.5-2.17,3.38l-.96,5.24c-.28,1.56-.49,2.45-2.11,3.3l-.84,5.25-1.46.7c-1.17.56.8,4.01-2.26,4.91l-.69,3.01c-3.67,2.38.31,3.65-3.77,5.74-.42.72-.34,2.53-.39,3.55-4.06,2.19-.48,2.86-4.02,4.53l-.46,2.74c-1.29.65-2.11,1.51-1.79,3.19l-2.2,1.68c.39,1.81-.77,2.88-2.11,3.56l-.6,2.84c-1.41.45-2.27,1.16-1.86,2.83l-1.92,1.08c.02,1.77-.92,2.31-1.97,3.43-3.07,3.29-1.89,3.85-4.11,4.96l-.71,1.47c-.18.37-1.32.33-1.52.68-.16.27-.32.96-.45,1.24-.12.29-.99.5-1.22.74-1.19,1.28-2.82,2.26-4.5,2.99l-.85,1.33c-.76,1.19-3.94-1.58-5.32,2.24l-11.74-.56-.64-1.77c-.27-.73-3.39-.12-3.73-.76l-.88-1.66c-.18-.34-1.33-.34-1.69-.4-.44-.08-.5-1.32-.9-1.56-1.09-.64-2.6-2.18-2.96-3.4l-1.31-.94c-.36-.26-.22-1.29-.25-2.09l-1.83-.99-.12-2.84c-2.27-.69-1.26-1.33-2.7-5.83-.08-.26-1.2-.42-1.22-.69l-.07-1.5c-.02-.38.25-1.36-.08-1.49l-1.54-.62-.63-5.5c-1.05-.5-1.61-1.16-1.71-2.23l-.4-4.71-1.67-1.25-.03-4.9c-.19-.5-1.23-1.33-1.51-1.83-1.13-2.02,1.35-5.63-1.87-6.65l.13-5.15-1.81-1.09.16-4.84c.01-.51-1.17-1.26-1.61-1.69-.21-2.22-.08-5.32.02-7.72.06-1.51.36-2.48,1.93-2.74l-.03.03h0ZM290.32,119.16c.22.16.39.66.42,1.05l.39,4.3c.56.33,1.47.6,1.65,1,.19.4.21,1.4.21,2l.04,2.26c0,.48,1.23.66,1.8.99.62,2.71-1.59,4.8,1.78,5.59l-.07,3.87,1.93,1.36.06,3.81,1.66.75c.71.33.11,2.18.81,3.73.21.46,1.57.62,1.75,1.09.22.59-.21,2.31.35,2.61l1.51.8c.38.2.34,1.45.64,1.76.62.65,1.49,1.56,2.08,2.26,3.51,4.17,3.07,2.22,4.35,4.48.28.49,1.35.58,2.07.53l1.09,2.11,5.03.17.76,2.01,7.27.68-7.55-.13-.98,1.55-10.47-.46-1.41,1.65-10.1-.49-1.16,1.84-10.29-.2-.92,1.89-8.99-.45-.77,2.16-7.03-.34c-.02-.51.51-1.84,1.06-1.83l4.67.11c.29-1.57,1.22-1.76,2.36-1.89,1.69-1.46,3.52-3.17,4.96-4.87.65-.77.16-2.09,2.07-1.82l.37-3.27c.05-.43.04-1.46.36-1.62.39-.19,1.09-.38,1.97-.64l.67-11.61-2.13-1.05.19-7.88-1.88-1.17-.23-4.53-.16-4.21c-.01-.36-1.41-.43-1.48-.79s-.19-1.21-.14-1.57l.16-1.32c.04-.37,1.19-.59,1.63-.47,1.04.28,1.35-1.04,1.89-1.44l2.82-2.01c2.5-1.79,1.96-3.08,2.96-2.35h-.03,0ZM267.36,168.33c-.24.34-1.16.38-1.69.35l-7.69-.39-.35-1.49c-.26-1.09-3.06-.22-3.28-.93l-.52-1.64-1.95-.6-.28-1.44c-.07-.38-1.06-.5-1.63-.69l-.13-2.95-1.85-1.14-.06-5.59c-.02-1.45-.3-2.3-1.86-2.85l.12-7.05-1.12-1.24c.1-3.97.26-5.22-1.37-8.87-.65-1.43-2.64.13-3.49.72-.77.53-2.36.26-3.54.12l-1.86,1.84-4.83.07c-3.03,4.05-3.21-.71-7.28,3.31l-4.48.46c-1.25.13-1.95.47-2.63,1.62l-5.66.28c-1.29,3.77-4.35-.26-6.11,2.91l-3.99-.04-1.75,1.73-5.32.18-2.12,2.73-.68,3.44c-1.1.61-1.68,1.15-1.59,2.31.08,1.08-.55,1.97-.81,3.01l-.73,2.93c-.99.64-1.79,1.59-1.89,2.78l-.36,4.26c-1.79.25-2.19,1.59-1.98,3.2.22,1.68-.66,2.42-1.48,3.47-.61.78-1.06,1.97-1.9,2.66l-2.55,2.1c-.77.63-1.03,2.01-2.59,1.64-1.23-.29-1.99.43-2.34,1.81l-9.32-.37-.53-1.61c-.12-.37-1.19-.36-1.67-.43l-1.48-.23c-.37-.06-.2-1.31-.35-1.71-1.55-.83-3.26-2.51-2.72-4.62l-1.84-1,.48-10.22,2-.68.3-4.53c.06-.95,1.11-1.64,1.8-2.45.58-.72.96-2.61,1.21-3.74l-8.33-.47-.55-1.51c-.22-.61-2.43-.2-2.71-.49-.21-.22-.43-1.1-.68-1.33-.84-.76-2.59-2.38-3.19-3.35-.17-.27.3-1.63,0-1.75l-1.76-.7.39-9.13,2.03-.9c-.34-1.86.53-2.53,1.56-3.54l2.15-2.1c2.5-2.44,2.75.88,4.52-2.66l4.77.05c3.36.03,6.72.54,10.01.16l4.73-.54.35-2.81c.07-.57,1.38-1.16,2.04-1.47l.16-3.06c3.82-1.5.48-3.6,3.17-4.42,2.5-.76-.58-3.28,3.26-4.18l.33-2.69,1.68-1.24c.42-.31.22-1.53.15-2.38,3.94-1.6.72-1.24,5.13-6.25.23-.32,1.15-.52,1.28-.88l.53-1.6c.8-.6,1.47-1.38,2.1-2.19.44-.58,1.3-1.19,1.38-1.96.11-1.05.67-1.42,1.73-1.68l.79-1.82c1.21.02,1.38-1.18,1.98-1.77,1.14-1.13,3.57-3.86,3.64-3.92.74-.54,1.37-1.29,1.65-2.21l1.37-.38c.37-.1.51-1.04.73-1.37.89-.39,1.53-1.17,2.21-1.85,5.06-4.95,1.35-.83,4.71-3.98l2.4-2.24c.65-.61,2.4-.28,2.49-1.88l2.54-.37c1.4-4.03,3.51.54,4.75-3.79l4.99.17c.51.02,1.16-.88,1.47-1.81l11.13.24.48,2.04,4.62.42.47,1.49c.11.35.99.47,1.65.52,2.37.16-.19,2.12,3.16,2.84.27.83,1.53,1.83,1.76,2.43l.58,1.49c.1.27.88.4,1.64.71v2.61l1.42.82c.4.23.14,1.63.15,2.17.02.54,1.24.89,1.89,1.15l.04,3.8c.14.46,1.43.93,1.96,1.15l.27,5.05,1.73.83.02,4.45,1.64.92c.35.19.11,1.24.12,1.64l.04,1.05c.01.31,1.04.66,1.22.38,2.55-3.83,3.9.24,5.55-3.5l7.59.2.54,1.94,2.97.53c.54,1.31.96,2.25,2.44,2.41l.03,3.39,1.96.9-.46,9.15-2.09.95c.4,1.55-.41,2.52-1.81,2.84l-.85,1.99c-1.41-.16-2.35.3-2.72,1.78l-2.6.21c-1.91,3.16-3.83.36-5.29,2.32-.28.37.43,1.11.79,1.63l-.16,5.15,2.04,1.16-.22,6.15c.28.33,1.07.89,1.55,1.22l.08,6.25c3.1,2.28-.96,5.13,2.8,6.18l-.44,9.32-1.6,1.04c-.08,2.62-6.68,8.77-9.24,7.94l-1.08,1.54.02-.03h0ZM336.55,204.48c-3.83,0-8.59-.28-12.07-.44-.71-.03-1.65.97-2.13,1.46-3.14.27-6.89-.61-10.04.02-3.4,2.17-3.03.32-6.48,1.12l-.55,12.52.29,3.79-.9,17.42c-.06,1.04.64,1.53,1.79,1.84l-.27,5.49c-.02.46.44,1.39.79,1.72l2.01,1.94c.62.6.45,2.16,2.15,2.07l-.1,3.6,1.83.68-.55,9.84-2.05.61c.64,2.39-.68,3.34-1.97,4.65-5.93,6-7.53,3.95-7.86,4.56l-.84,1.52-9.89-.44-.42-1.64c-.25-.99-3.18.58-3.97-1.55-.44-1.19-1.51-1.6-2.66-1.87l-.34-1.71c-.07-.36-1.23-.42-1.37-.76-1.92-4.46-.55-3.59-2.72-5.43l-.77-5.59c-.17-1.24-.59-2.27-.63-3.71l-.11-4.49c-.05-1.79-.85-3.56-.34-5.41.44-1.61-.63-2.99-.6-4.2l.42-15.31.63-15.79c-1-.47-2.41-.32-3.63-.12l-3.56.57c-.74.12-2.29,0-3.06.05-1.48,3.35-3.73-.15-5.97,2.39l-4.47.02-1.28,1.84-9.86-.45-.53-1.7c-.22-.73-2.91-.09-3.43-.7-.28-.33-.37-1.41-.74-1.65-1.32-.88-3.96-3.16-3.2-5.2l-1.96-.77.46-9.16c1.42-.47,2.26-.81,2.08-2.54-.09-.92,1.16-1.45,1.71-1.99l2.32-2.26c.77-.75,1.09-1.81,2.5-1.56,1.24.22,2.04-.55,2.6-1.74l7.01.02c2.56-3.66,4.95.34,7.91-2.45l5.1.1,1.29-1.62,7.19.03c.45-1.05,1.09-1.77,2.29-1.74l7.45.2c.46,0,1.18-1.11,1.46-1.61l9.51.31,1.25-1.67,10.24.13c.91-.26,2.38-1.41,3.54-1.36l8.27.38c1.22-1.47,2.56-1.63,4.38-1.55l14.38.6c.24.64.53,1.41.71,1.78.18.36,1.19.22,1.64.26l1.36.12c.37.03.41,1.44.73,1.61,4.8,2.6,2.75,5.14,3.5,5.47l1.65.74-.47,9.52-1.66.99c-.41.25-.24,1.54-.35,2.03l-2.63,2.47-2.17,1.85c-1.35.02-2.91.6-3.84,1.86h0ZM434.72,262.65l-.5,2.18-3.54,3.88c-.57.63-1.82,1.21-2.37,2.11l-2.09.74-.56,1.37c-.33.81-2.79-1.04-3.77,1.97l-3.14.15c-1.92,4.09-3.54-.55-5.02,3.58h-5.03c-.52,1.07-1.24,1.87-2.55,1.83l-6.87-.19c-.46.7-1.34,1.95-1.96,1.93l-20.13-.83-.58-2.05-8.34-.47c-.2-.73-.6-2.03-1.15-2.07l-4.3-.27-.45-1.39c-.35-1.07-2.83-.35-3.02-.84l-.59-1.53-2.88-.58-.46-1.55c-.12-.41-1.44-.51-1.74-.82-.55-.76-1.22-2.22-2.58-1.99l-.43-1.95-1.61-.31c-.32-.06-.28-1.2-.5-1.47-.57-.71-1.17-1.77-1.59-2.64-.51-1.09-2.44-1.41-1.41-3.4l-1.87-.79-.13-2.75c-2.83-1.29-.68-4.17-1.67-4.72l-1.48-.82v-6.56l-1.81-.86.94-17.75c1.15-.29,2.03-.85,2.09-1.71l.32-5.5c.04-.68,1.36-1.47,1.92-1.83l.93-3.71c.75-1.04,1.3-1.9,1.93-2.89.57-.89,1.62-1.42,1.78-2.66.12-.96.86-1.64,1.7-2.27l.91-2.1c1.37-.05,1.38-1.44,1.93-1.99l2.62-2.6c3.81-3.79-.91,0,3.65-3.43l2.15-1.62c.89-.67,1.49-1.1,2.18-2.16l2.27-.22c.15-2.33,2.3-1.7,3.52-2.37,1.1-.6,1.66-2.64,3.59-1.65l1.62-1.96c1.66.64,2.82.35,3.44-1.25l4.61.06c.42,0,.86-1.2,1.08-1.92l7.87.17c.66.02,1.2-.78,1.44-1.72l18.9.69.74,2,7.87.36.73,2.2,4.42.27.54,1.93,2.68.34c.1,1.54,1.82,1.57,2.48,2.32.67.77,1.16,1.7,2.28,1.97l.73,2.17c1.01.29,1.72.84,1.67,1.58-.06.71-.17,1.41,0,1.68.22.34.96.46,1.77.73l-.58,9.56c-1.25.46-1.81.93-1.87,2.22,0,.05,0,.09-.01.13,0,.04-.01.07-.02.1-.01.07-.03.14-.05.21h0s-.02.08-.04.11c-.02.05-.04.11-.07.16-.03.07-.06.14-.1.2-.05.08-.1.17-.15.26-.03.05-.06.1-.1.14-.03.04-.06.08-.09.12-.05.07-.1.14-.16.21-.07.09-.13.17-.2.25s-.14.17-.21.25c-.1.11-.2.21-.3.32-.1.1-.2.2-.3.3-.1.1-.2.19-.3.28l-.14.13c-.1.08-.19.16-.28.24-.09.07-.17.14-.25.2-.04.04-.08.06-.11.09,0,0-.02.02-.03.02-.04.04-.09.07-.13.1-.08.06-.15.1-.2.14-.04.02-.07.04-.09.05-.03,0-.04,0-.03-.02l-1.21,1.53c-.31.4-1.37.27-2.31.28l-1.44,1.94c-3.16.09-6.51-.03-9.64-.3l-.88-2.25c-1.18-.03-3.29-.02-3.77-.81-2.83-4.81-6.76.38-7.1-4.35l-12.67-.59-1.47,1.81-5.44.02c-1.44,3.08-3.68,1.31-4.04,2.08l-.66,1.42-1.85.45-3.69,2.81-1.77,1.94-2,2.21-2.19,2.66c-.07,1.7-.42,3.3-2.28,3.96l-.51,9.9c.6.28,1.67.41,1.67.79l.04,1.86c.01.53-.15,1.78.21,2.05s.99.57,1.76.96l.44,2.26c1.59,0,2.4,1.12,2.75,2.42l2.33.31c.53.07.76,1.1,1.14,1.93l5.03.34.88,2,12.43.47c.47-.25,1.24-1.22,1.63-1.71l5.73-.1c.83-1.18,1.94-2.25,3.26-1.71,1.98.81,2.24-1.2,3.22-1.57,1.31-.5,3.25-.46,3.69-2.25l1.79-.35c.44-.08.59-1.19.78-1.74l2.74-.14.93-1.76,8.28.46.29,1.61c.12.71,2.91.11,3.5.86.22,1.41,1.24,1.98,2.33,2.39l1.09,2.42c.13.3-.03,1.21-.03,1.54s.88.58,1.66.89l-.35,10.49c-.69.23-1.56.31-1.65.69l-.02.06h0ZM439.96,215.42l-.54,4.6-1.75,1.1-.3,5.88-2,.56-.7,11.11c-2.18-2.62-5.3-.96-5.52-1.86l-.46-1.84-9.12-.48-1.1,1.96-4.35-.13c-1.36,1.32-2.76,2.13-4.26,3.02-.58.34-.86,1.66-2.04,1.29-1.19-.38-1.99.47-2.45,1.89l-4.05.07c-2.32,3.27-4.41-.73-5.28,2.87-3.68.06-8.43-.16-12.08-.52l-.72-1.68c-.43-1.02-1.21,1.23-3.69-1.23-.89-.88-3.15-1.18-3.35-2.93-.04-.34,0-1.34-.28-1.45l-1.67-.65.29-7.09c.03-.79,1.2-1.7,1.52-2.33.86-1.75,2.16-3.39,3.54-4.58l3.48-3.01c.85-.74,2.32-1.28,3.16-1.91,1.11-.82,1.57-1.56,3.25-1.21.41.09,1.5.09,1.87-.08s.48-.9.77-1.8l13.5.54.44,2.26,4.01.34,1.14,2.21,4.46.23,1.05,2.15,11.22.49c.82-1.38,1.69-2.52,3.34-1.95,1.54.53,2.36-.66,3.44-1.52l2.95-2.34c3.8-3.03,1.01-1.64,2.45-3.43.25-.32,1.48-.17,1.51.24.04.51-.92,1-1.68,1.21h0ZM442.54,212.71c-.8-.98-.66-3.5.12-4.3.17-.18,1.05-.34,1.29-.34s.63.59.47.77l-.84.97c-.43.49-.6,1.63-1.04,2.9ZM546.06,256.94c-.08,1.58-.14,3.53-.4,4.88-.92,1.19-1.76,1.9-1.29,3.82l-2.07.95c.47,2.11-1.23,2.84-2.21,4.24-.54.77-1.1,1.78-1.71,2.39l-6.14,6.2c-.57.58-1.57.97-2.32,1.13-.78,1.14-1.74,1.67-3,2.26-1.29.6-2.04,2.5-4.11,1.39l-1.84,2.09-3.14.15-1.01,1.62c-.63,1.02-3.48-1.07-4.21,1.66-2.44.23-4.99.12-7.68-.01l-1.33,1.83-21.76-.83-.96-2.05-8.62-.48-.56-1.65c-.29-.85-4.14.11-4.61-.87l-.63-1.6c-.14-.35-1.26-.28-1.66-.29l-1.39-.03c-.32,0-.45-.55-.69-1.23-.61-1.79-3.08-.47-3.29-1.39l-.43-1.81-2.13-.11c-.14-1.47-.98-1.85-1.88-2.68l-2.15-1.99-.47-1.52c-.12-.37-1.27-.46-1.57-.62-.29-1.07-.76-2.05-1.41-2.89l-1.65-2.12c-.23-.29.03-1.51-.28-1.71l-1.42-.9v-2.79c-3.87-1.62.43-4.58-3.27-5.98l.14-5.78-1.8-1.35.97-19.43,1.95-.91.6-6.59c3.91-.82.76-4.45,5.07-7.93.47-.41.47-2,.56-2.69l1.35-.61c.4-.18.47-1.46.65-1.88,1.09-.37,1.43-1.69,2.05-2.48l1.79-2.26c.98-1.25,2.22-2.84,3.41-4l1.89-1.86,1.28-.65.76-1.38c.32-.58,1.85-1.17,2.48-1.68l3.11-2.57c.77-.63,2.69-.22,2.74-2.14l2.69-.24c.43-1.23,1.01-1.74,2.12-1.98l3.63-.77,1.09-1.53c.26-.37,1.48-.24,2-.14,1.46.27,2.17-.59,3.17-1.5,1.54-1.42,5.1,1.41,6.09-1.98l8.53.19.92-1.41c.25-.38,1.51-.27,2.03-.25l12.98.5.56,1.91,7.79.48.79,2.04,3.65.25c.51,1.19,1.84,1.61,3.08,1.75.3.44.54,1.48.97,1.58l1.96.46c.64,2.17,2.55,1.91,4.06,4.57l1.51,2.65c.53.94.22,3.21.04,4.33l-1.9.22c-.39.05-.55,1.11-.74,1.4-.82.28-1.87.68-2.4,1.22l-1.75,1.81c-.6.62-1.04,1.19-1.45,2.18l-1.34.83-.15,4.41c.8.58,1.34,1.1,1.71,1.96l2.09.45c-.38.8-1.6,2.07-2.52,2.08-2.48,0-4.8,0-7.15-.4l-3.47-.61c-.5-1.5-1.45-2.64-3.32-2.13-.46-.52-1-1.47-1.48-2.41l-4.95-.52-.83-1.92-12.09-.61c-.95-.05-1.59.77-2.09,1.84l-6.18-.14c-.41,2.35-2.95,1.62-4.13,2.43l-3.35,2.29c-3.35,2.29-2.76,2.36-5.37,4.2-.62.44-1.44,1.71-2.02,2.36l-1.73,1.93-.65,2c-1.48.27-1.51,1.5-2.06,2.65-.43.88-1.56,1.88-1.31,3.03.38,1.79-.59,2.48-2,3.16l-.62,11.44c.19.55,1.34,1.33,1.87,1.69l.06,3.44,1.75,2.19c.59.75,1.09,1.78,1.49,2.76l1.64.59c.42.15.47,1.2.67,1.84l2.71.61.33,1.4c.37,1.57,3.17-.78,4.05,2.43l5.19.39.45,1.94,12.74.57.51-1.56c.33-.98,5.01.03,6.44-.52.38-.77,1.22-2.02,1.92-1.83,1.66.46,2.3-1.24,3.35-1.74,1.22-.59,1.76-1,2.53-2l1.84-2.4c.52-.67,1.48-1.15,1.3-2.31l-9.15-.39-2.26,1.7-12.48-.46c-.35-1.3-.79-2.14-1.89-2.18-.59-.02-1.5-.03-1.56-.23l-.48-1.58-1.55-.72c-.93-.43.93-2.55-2.14-3.43l.28-9.17,1.96-1.26c.12-.97.2-1.63.36-2.21.15-.53,1.58-.69,1.97-1.07.27-.26.54-1.16.78-1.44.29-.35,1.23-.41,1.92-.51.5-.08,1.15-.97,1.65-1.41,1.22-1.1,3.54,1.16,6.8-1.32,1.67-.57,4.24-.44,6.14-.38l22.95.79.82,1.95,4.92.43.76,1.58c.2.42,1.4.36,2.09.54.58.15.91,1.52,1.19,2.19.5.18,1.26.22,1.49.54.27.37.47,1.49.62,2.08l1.38.65c.34.16.13,1.51.33,1.85,2.27,4.05-1.07,3.41,2.58,4.52l-.56,11.79-1.85.8-.03-.07h0ZM482.55,234.91c-.33.2-.71.18-1.8.27l-.6,11.51,2.17.87c-.21,6.56.27,3.07,4.33,8.48l-1.94.11c-1.07-2.06-1.17-.62-4.22-3.2-.89-1.21-2.33-3-3.64-3.97l.2-1.92c.05-.5-.96-.95-1.69-1.32l.59-10.34c2.29-3.33,1.98-.25,3.04-5.76,1.48-.34,1.73-2.08,2.47-2.78.95-.89,1.58-1.55,2-2.54l2.85-2.22,2.6-2.03,2.75-.83c.07-1.04.84-1.9,1.85-1.85l3.13.13c.38.02,1.4,0,1.55-.34l.69-1.69,12.57.69.21,1.56c.18,1.36,4.35-.64,4.68,2.87l-15.4-.52-1.05,1.87-6.75.12c-.25.5-.42,1.5-.8,1.55l-2.1.31c-.34,1.12-1.21,1.57-2.16,2.33l-2.42,1.93c-.7.56-.3,2.5-2.21,2.03-.21,1.57.05,4.07-.92,4.67h.02,0ZM537.48,222.22c1.37-.82,2.79.97,3.92-1.26l4.06.39.35,4.05c.08.99-.03,2.38-.84,2.67-.55-.78-1.02-1.95-1.62-2.05-.48-.08-1.68-.22-2.03-.37-.35-.16-.3-1.2-.5-1.63-.43-.95-1.75.02-3.49-.55-.28-.09-.1-1.1.15-1.25h0ZM570.64,220.75l-1.04-1.34-5.55-.25c-2.07,4.65-3.77,3.64-4.04,6.41l-1.42.58c-.37.15-.22,1.31-.31,1.72-1.05.44-1.77,1.11-2.18,2.28-.46.28-2.32.45-2.76-.09l-1.56-1.91-.18-4.73-1.37-.7c-.02-2.17-.08-4.41-.35-6.63l-5.81-.45c-1.45-2.8-4.08.48-4.65-2.78l-3.07-.29.21-3.09,1.96-1.88,1.24-.4c.36-.12.56-.79.82-1.48l2.19-.42.57-1.3c.15-.34,1.31-.24,1.61-.47l1.89-1.53c1.55-1.25-.04-3.53-.25-4.86-.64-3.99,1.16-.33-1.06-6.15-.16-.43,1.02-.86,1.68-1l.37-3.34c.45-.28,2.36-.38,2.89.1l2.03,1.81c.68.61,1.59,1.06,2.52,1.36l.8,1.6c.21.43,1.62.13,2.11.2.25,1.03.58,2.04,1.37,2.52l1.42.86c.33.2,1.03-.62,1.41-.7l2.38-.45c.58-.75,1.34-1.09,2.43-1.07,1.31.02,1.83.43,2.37,1.67l5.35.4c.53.08.77,1.9.42,2.3-.35.4-.81.86-1.45,1.51l-.22,2.94c-.87.84-2.37,3.36-2.6,4.42-.18.82,1.18,1.07,1.58,1.55l1.58,1.85c.18.22.36.97.51,1.23.14.26.76.38,1.34.55.03,1.66,1.02,2.89,1.98,4.1.54.68.5,1.4,1.76,1.9l-.17,3.54-8.75-.1h0ZM603.29,198.69l-6,.11c-.92.02-1.54-.23-2.08-1.18l-5.7-.36c-.06,2.37-1.9,2.3-3.42,6.04-.32.09-1.07.15-1.14.39l-.4,1.42c-.69.46-1.53,1.25-2.09,2.04-.43.62-2.52.6-2.89.05l-.84-2.47v-3.65l-1.51-.87.33-5.56c-1.65-.04-2.43-.39-3.36-1.5l-4.87-.28-.49-1.18c-.47-1.16-.88.82-3.56-1.47-.86-.73-1.48-.96-1.58-1.74-.25-1.98.9-1.29,1.81-2.03,1.19-.97,2.97-1.64,4.26-2.52l2.14-1.47,2.34-1.26c.64-.35.11-1.95.04-2.75-.4-4.91.53-6.6.49-11.57l3.19-.06c.1.79.06,1.05.22,1.32.19.33,1.31.62,1.59.91.57.57,1.63,1.5,2.29,2.07s1.02,1.55,2.03,1.92c.59.21,1.08.89,1.45,1.49.75,1.21,2.47.25,3.49,0,1.26-.31,1.97-.51,2.87-1.53l3.81.03c.41,0,.8-.98.99-1.66l3.93.09-.11,3.99-1.59.57-.2,4.7c-1.24.55-1.62,1.43-2.02,2.75l-.66,2.16c-.18.57,1.25,1.13,1.62,1.59.19.25.08,1.41.38,1.51l1.33.45c.3.1-.1,1.1-.02,1.39.1.36.97.66,1.28.91.62,1.33,1.43,3.03,2.83,3.88l-.21,3.34h.03Z"/>
  <path class="cls-1" d="M176.54,243.33l-35.28-9.28c-1.27-.34-2.58-.83-3.79-1.21-1.98,1.76-2.76-.21-5.55-.64l-16.14,34.48c-.77,1.64-1.73,3.25-2.54,4.62-.82-.32-1.57-.66-1.94-.6s-.74.75-.94,1.15l-1.72,3.43c-1.07-.29-2.17-.64-2.72-.49-.64.17-1.08.93-1.56,1.89l-2.71-.44-1.4,1.92c-.7-.05-2.08-.51-3.19-.89-.51.06-1.06.88-1.6,1.84l-5.09-1.73-1.11,1.74c-1.59-.47-3.36-.97-4.9-1.69l-17.3-8.09.85-2.52-4.4-2.26.47-2.22-1.39-.95c-.32-.22.19-.98.53-1.59l-3.28-3.22,1.89-4.74-2.36-1.46,4.26-9.58c1.25-2.8,2.63-5.52,4.1-8.13l2.7.91,2.05-4.18c1.8.4,4.32.48,5.81-.07l1.05-1.9c.95.25,2.04.58,2.65.6.53.02.99-.71,1.48-1.12l5.07,1.96,1.3-1.67c1.41.49,2.91.94,4.17,1.52l10.42,4.77,15.25-32.54,2.84.73,1.9-3.82c1.32.39,2.93,1.01,4.13,1.49l1.31-1.44,16.04,4.44,34.59,9.31,17.99,4.83c.58.16,7.73,3.16,7.64,4.04l-.11,1.14,1.69,2.12c.86,1.07,1.52,1.87.95,3.12l-1.26,2.77,1.68.93c-1.13,3.59-2.2,6.99-3.85,10.52l-22.81,48.68c-1.62,3.45-3.44,6.36-5.44,9.46l-2.09-.97-2.55,4.77c-.94-.27-1.94-.58-2.45-.58-1.09.01-1.6,2.33-2,2.28-.32-.04-.86-.19-1.37-.37-3.64-1.27-1.52,2.71-4.97,1.4-.46-.17-1.61-.53-1.87-.24l-1.27,1.45c-1.52-.37-3.25-1.05-5.14-1.86l-1.37,1.78c-2.32-.9-4.61-1.7-6.85-2.76l-15.32-7.21.7-2.49-4.23-2.12c.11-.8.35-1.78.21-2.33s-1.42-1.1-2.28-1.6l.29-2.19c.08-.61-1.18-1.48-2.17-2.01l1.87-4.95-2.2-1.41,4.09-9.3c1.27-2.88,2.71-5.53,4.26-8.17l2.48.81,2.13-4.31,2.28.52c.44.1,1.06-.64,1.44-1.17l2.47.98,1.14-2.58,2.61.91,1.64-1.31,4.84,2.1,1.22-1.69c3.1.97,6.26,2.25,9.31,3.73l6.4,2.87,8.33-17.91h0ZM163.49,234.13c1.7.1,3.67,1.25,5.48,1.53,5.37.85,3.51,2.26,7.15,1.56l4.13,1.58c1.48-.3,3.29.23,4.46,1.44l-2.83,5.68-8.59,18.34-3.18,7.05-4.63-3.2.66-2.01-10.43-4.84c-.52-.24-1.22-.4-1.63-.39-.35,0-.71.91-1.01,1.51l-5.92-2.1-1.51,1.9c-1.86-1.02-3.24-.34-3.95,1.21l-2.78-1.15-2.37,4.86-2.64-1.2-5.34,11.35,2.53,1.39-2.03,4.92c1.25.57,2.39,1.02,2.82,1.75,1.14,1.94-.68,3.13-.08,4.14l5.08,2.57-.71,2.3,14.25,6.58,1.17-2.02,3.62,1.57c.46.2,1.67.45,1.93.13l.95-1.16c3.67-1.23,4.07.34,5.4-.08,1.05-.33.98-2.16,2.53-2.64.42-.13,1.45.4,2.26.69,1.89-1.52,1.61-4.67,5.56-4.15.65-1.15,1.31-2.12,1.87-3.3l22.64-48.39,4.54-9.94-2.32-1.39,1.82-3.9-3.36-1.71c.15-.68.35-1.31.28-1.67s-1.06-.98-1.5-1.1l-56.34-15.22-9.38-2.66-.83,1.72-3.5-1.48-1.79,3.64-2.52-1.06-14.62,31.27-2.41,5.3-4.82-3.17.56-2.11-10.95-4.94-1.26,1.86-6-2.23-1.17,1.85c-1.7-.53-2.8.07-3.83,1.04l-2.4-1.06-2.36,4.86-2.75-1.21-5.32,11.38,2.61,1.55-2.25,5.03c1.92.63,2.87,1.1,3.34,2.42.38,1.05.09,1.9-.46,3.23l4.74,2.49-.6,2.37,13.81,6.43c.56-.89,1.14-1.69,1.6-2.01,1.78.83,3.53,1.65,4.99,1.92.45-.72.81-1.84,1.34-1.79l2.01.21,3.38-.4,1.47-2.36,2.76.83,2.81-4.86,2.43.78,18.79-40.13,5.79,2.18,1.38-.9c1.8.77,3.38,1.36,5.16,1.82l5.26,1.35,6.24,1.62,5.52,1.35c1.76.43,3.37,1.25,5.25,1.36v.02h0Z"/>
  <path class="cls-1" d="M635.96,144.4l-3.9-.7-1.27,2.7-4.22-1.35-1.42,2.17-5.46-1.68-1.15,1.99c-2.33-.53-4.56-1.2-6.78-2.14l-17.21-7.26.54-3.23-4.18-1.84.45-2.82-3.12-1.44.36-2.77-2.05-1.26,1.46-2.72-3.22-2.98,2.07-5.31-2.36-1.38c2.62-7.44,5.65-14.53,9.24-21.72l2.69.75,2.44-5.3,4,.6,1.02-2.86,3.36.76,1.71-3.28,4.56,1.44.75-1.66c.16-.36,1.18-.46,1.56-.33l5.55,1.83,1.18-1.87c6.88,1.59,13.91,5.25,20.64,8.23l20.87-48.98c.2-.47.82-1.58,1.2-1.42l2.1.87,2.24-5.04,4.06.91,1.05-1.75c2.73.65,5.42,1.53,8.07,2.69l8,3.52c-.67,2.2.42,3.5,2.19,4.53-.29,3.07-1.37,6-2.63,9.25l3.63,1.83-.94,2.97,3.57,1.94-.76,2.86c.81.68,1.49,1.54,1.94,2.36.28.5,1.92,1.02,1.72,1.62l-1.22,3.68,2.97,1.51-.74,2.27c-.46,1.42.78,2.72,2.33,4.17l-1.82,5.28,1.66,1.58c-2.49,8.43-5.98,16.57-10.17,24.38l-2.42-.53-2.31,5.22-2.65-.56-1.59,2.42-2.32-.61-1.36,2.41-3.76-1.05-1.06,1.43c-.79,1.06-8.39-2.65-9.78-3.31l-1.14-3.19c.97-3.86,2.63-7.47,4.53-10.89l2.08.24,1.73-4.27-1.68-1.08c-.9-.58,2.03-4.03-.74-5.63l-16.06,37.57c-.96,2.24-2.18,4.15-3.24,6.28l-2.36-.7-2.59,5.85c-1.11-.34-1.85-.63-2.35-.61-1.57.07-1.54,3.16-2.55,2.69-1.66-.65-4.89.03-4.93,2.73h0ZM638.86,134.62c.7-.45,2.8-.62,3.18-1.34l2.94-5.6c.88.27,1.73.67,2.16.52.36-.13.95-.9,1.13-1.33l17.79-41.37,3.06-6.74c1.37.54,3.61,1.13,4.25,2.04,1.02,1.57,1.7,2.61,3.35,3.67l-.62,2.61,3.4,1.68-1.96,5.34,2.3,1.18-5.38,12.79-2.07-.63-1.57,3.88,2.72,1.13,1.32-2.37,3.81,1.37,2.56-3.3,2.53.81,2.77-5.11c.27-.5,1.49-.12,2.16.26,1.8-3.18,3.37-6.57,4.71-10.1l2.74-7.23-2.11-1.22,2.22-5.94-2.22-1.31,1.02-3.14-3.58-1.67,1.83-4.72-4.02-1.99,1.03-3.28-3.84-2.11,1-2.92-4.72-2.22,3.62-8.62-3.05-1.76.94-2.51-7.14-3.02-1.45,2.32-2.77-1.15-1.89,4.14-2.62-.83-21.07,49.43-3.3,7.9-3.54-2.2,1.1-2.41-5.3-2.57.75-2.36-13.02-5.4-1.29,2.01-6.11-1.88-1.27,2.18-4.29-.93-1.53,2.37c-1.01-.27-2.22-.5-2.69-.13-.41.32-1.01,1.13-1.57,1.79l-2.46-.76-2.65,5.6-2.76-.91-6.02,14.23,2.63,1.3-2.34,5.93,2.71,1.34c1.76,1.7-.93,4.1-.47,5.16.24.56,2.76.61,3.55,1.79l-.85,3.12,5.37,2.54-.74,2.53,15.55,6.57,1.23-1.82c.21-.31,1.23-.04,1.59.08l4.21,1.4,1.07-2.04c1.62,0,3.17.18,4.8.51l1.42-2.14c4.63,1.01,2.46-1.95,5.3-1.31,1.05.24,1.58-.57,2.49-1.16l-.03.03h0Z"/>
  <path class="cls-1" d="M86.88,135.82c2.26,3.24,4.23,6.24,5.93,9.39-.7.6-1.47,1.32-1.61,1.81l3.17,4.77c-.76.73-1.6,1.45-1.71,2-.36,1.96,2.1,2.68.7,3.79-.71.56-1.46,1.46-1.4,2.06.09.8.51,1.53,1.1,2.66l-2.39,1.86,1,2.29-3.81,3.67,1.1,1.94c-1.72,1.7-3.53,3.27-5.51,4.64l-13.55,9.41-2.08-2.19-4.21,2.5-1.72-1.91-1.75.86c-.23.11-.75.17-.96.13s-.36-.89-.56-1.05c-.77-.63-2.68-.08-3.89.72l-3.73-4.86-2.42,1.27c-4.8-5.89-8.92-11.94-12.88-18.48l1.97-2.04-3.1-4.69,2.08-2.3-.98-1.71c-.24-.42.99-1.25,1.19-1.6l-1.09-2.26,1.6-1.6c.39-.39-.13-1.39-.38-2.26l4.28-3.56c-.5-.61-1.18-1.99-.67-2.42,4.91-4.15,6.69-4.86,11.24-8.5l-34.04-48.55c.61-.87,1.54-2.21,1.19-2.83l-1.99-3.51,2.6-2.79-.89-2.2c2.03-1.75,4.18-3.43,6.46-5l7.75-5.34,2.3,2.42,3.56-1.78,2.89,4,4.1-2.48,2.3,3.18,4.2-2.63,1.44,2.36c1.51-.18,3.14-.6,4.78-1.37l2.46,3.15,3.49-2.32,2.72,3.77,2.3-1.4,1.37,1.5,2.63-.46,3.34,4.61,2.05-1.14c5.6,6.34,11.05,13.39,14.71,21.15.23.48-.85,1.16-1.57,1.53l2.98,4.58-1.46,1.91c-.69.91,1.38,3.18,1.14,3.46l-.89,1c-.34.38-1.16,1.09-1.17,1.52-.02.5.62,1.19,1.24,1.97l-3.02,3.04,1.04,2.16c-13.46,11.09-9.46,4.57-11.28,5.23l-1.39.5c-2.2-2.47-4.5-5.72-6.05-8.68l.97-1.31c.24-.33-.41-1.22-.83-1.69-.8-.88-.04-1.8.46-2.89-.52-.97-1.71-2.65-2.45-3.64l-2.22,1.26-1.96-2.48-3.96,1.76,23.75,34.09s-.01,0,0,0ZM83.91,141.51l-31.29-44.96,4.12-3.01,1.51,1.23,3.52-1.86,1.69,1.95,3.81-2.58c1.41.82,2.87,2.05,4.01,3.32l2.26-1.32,7.58,10.96-.89.85c-.35.34,1.65,2.38,1.18,2.8l-1.59,1.44,2.32,3.23,3.34-2.47c-.57-.89-1.19-1.66-1.06-2.13.41-1.46,2.7-1.64,2.44-3.42-.09-.59-.73-1.3-1.49-2.12l2.26-2.46c.23-2.92-2.65-6.71-2.2-7.13l1.47-1.35-9.87-14.38-2.73,1.67-3.98-5.58-1.88,1.2c-.58.37-1.85.28-2.29-.33l-2.45-3.42-3.7,2.36-2.79-3.79-3.78,2.61-2.41-2.91-4.08,2.62-2.32-3.14-4.18,2.66-3.25-4.38-3.2,2.01-1.71-2.18-6.33,4.43,1.08,2.48-2.38,1.86,2.48,3.66-2.04,1.66,32.17,46,4.93,6.84-4.42,1.93c-.71-.71-1.27-1.22-1.82-1.6l-9.28,6.67.97,2.2-4.72,4.05,1.37,2.19c-1.46,1.16-1.69,2.74-.84,4.5l-2.01,1.78,3.34,5.11-2.18,1.68,7.69,11.32c.17.25.99.58,1.23.43l1.75-1.08,3.99,4.85,2.25-1.68,2.85.89,1.59,1.77,4.46-2.92,1.87,2.11,12.23-8.6-1.26-2.46,4.24-3.26-1.26-2.66,2.61-4.16-1.65-4.03,2.04-1.63-3.19-5.5,1.71-1.6c-.51-.93-.99-2.04-1.84-3.26v.04Z"/>
  <path class="cls-1" d="M654.3,293.39c0,.69-1.73,1.67-2.42,1.74l-24.3,2.47-.66-4.89-4.69.48-.6-4.85-4.99.39-.59-4.73-5.35.36-2.52-25.25,5.31-.73-.6-8.97,7.6-1.06c.61-.08,1.73-.84,2.14-1.15l-.4-5.15,22.91-2.4-5.85-57.72,6.18-.84-.36-5.35,13.67-1.32c.49,1.19.97,1.79,2.2,2.12l.56,2.94,6.71-.62,9.46,93.12c-1.57.48-2.98.66-4.94.92l.35,5.2-5.01.74.19,3.2-2.94.8.31,5.01c.02.26-.37.9-.57.86-.26-.05-.98-.36-1.03-.6l-.53-2.33-4.52.09.22,3.31-4.93.71v3.5h-.01,0ZM621.85,282.96l4.64-.37.55,4.65,4.91-.31.73,4.14,16.22-1.67-.24-4.18,4.87-.63-.25-4.36c1.02.35,2.06.72,2.68.64l6.67-.88-.24-6.04,4.69-.63-.34-5.11,4.35-.69-8.44-82.64-4.06.23-.54-3.69-7.28.82.29,4.4-4.76.78,5.65,55.63,1.02,5.54.91,6.07-3.72.38-.66-4.77-3.75.27-.7-4.78-17.07,1.78.39,4.78-4.83.58.42,4.82-4.59.61.37,5.15-4.58.65,1.47,14.35,4.61-.44.64,4.92h-.03,0Z"/>
  <path class="cls-10" d="M203.16,143.14l-3.99-.04-1.75,1.73-5.32.18-2.12,2.72-.68,3.44c-1.1.61-1.68,1.15-1.59,2.31.08,1.08-.54,1.97-.8,3.01l-.73,2.93c-.99.64-1.79,1.59-1.89,2.78l-.36,4.26c-1.79.25-2.19,1.59-1.98,3.2s-.66,2.42-1.48,3.47c-.61.78-1.06,1.97-1.9,2.66l-2.55,2.1c-.77.63-1.03,2-2.59,1.64-1.23-.29-1.99.43-2.34,1.81l-9.32-.37-.53-1.61c-.12-.37-1.19-.36-1.67-.43l-1.48-.23c-.37-.06-.2-1.31-.35-1.71-1.55-.82-3.26-2.51-2.72-4.62l-1.84-1,.48-10.22,2.01-.68.3-4.54c.06-.94,1.11-1.64,1.8-2.45.58-.72.96-2.61,1.21-3.74l-8.33-.47-.55-1.51c-.22-.61-2.43-.2-2.71-.49-.22-.22-.43-1.11-.68-1.34-.84-.76-2.58-2.38-3.18-3.35-.17-.27.3-1.63,0-1.75l-1.76-.7.39-9.13,2.03-.9c-.34-1.86.53-2.52,1.56-3.53l2.15-2.1c2.51-2.44,2.76.88,4.53-2.66l4.76.04c3.36.03,6.72.54,10.01.16l4.73-.54.35-2.8c.07-.57,1.38-1.16,2.04-1.47l.16-3.07c3.82-1.5.48-3.6,3.17-4.42,2.5-.76-.58-3.28,3.25-4.18l.33-2.69,1.68-1.24c.42-.31.22-1.53.15-2.38,3.94-1.59.72-1.24,5.13-6.25.23-.32,1.16-.52,1.28-.88l.54-1.6c.8-.6,1.47-1.38,2.1-2.19.44-.58,1.3-1.19,1.38-1.96.11-1.05.67-1.42,1.73-1.68l.79-1.82c1.21.02,1.38-1.18,1.98-1.78,1.14-1.13,3.57-3.86,3.64-3.91.74-.55,1.37-1.29,1.65-2.21l1.37-.38c.37-.1.5-1.04.73-1.37.89-.39,1.53-1.17,2.21-1.85,5.05-4.95,1.35-.83,4.71-3.98l2.4-2.25c.65-.61,2.4-.28,2.49-1.88l2.55-.37c1.4-4.04,3.51.54,4.75-3.79l4.99.17c.51.02,1.16-.88,1.47-1.81l11.13.24.48,2.04,4.61.42.47,1.48c.11.35.99.47,1.65.52,2.37.16-.19,2.12,3.16,2.84.27.83,1.53,1.82,1.76,2.43l.57,1.49c.1.27.88.4,1.64.71v2.62l1.42.82c.4.23.14,1.63.15,2.17.01.54,1.24.89,1.89,1.15l.04,3.8c.15.45,1.43.92,1.97,1.15l.27,5.05,1.73.83.02,4.45,1.64.92c.35.19.11,1.24.12,1.64l.04,1.05c.01.31,1.04.65,1.22.37,2.55-3.83,3.9.24,5.55-3.5l7.59.2.54,1.94,2.97.53c.54,1.31.96,2.25,2.44,2.41l.03,3.39,1.96.9-.47,9.15-2.09.95c.4,1.55-.41,2.52-1.81,2.84l-.85,1.99c-1.41-.16-2.35.3-2.72,1.78l-2.6.21c-1.91,3.16-3.83.36-5.29,2.32-.28.37.42,1.11.79,1.63l-.16,5.15,2.05,1.16-.22,6.15c.27.32,1.06.89,1.55,1.22l.08,6.25c3.1,2.28-.96,5.13,2.8,6.18l-.44,9.32-1.6,1.04c-.08,2.62-6.68,8.77-9.24,7.94l-1.09,1.54c-.24.34-1.16.38-1.69.36l-7.69-.39-.35-1.49c-.26-1.09-3.06-.22-3.28-.93l-.52-1.65-1.95-.6-.28-1.44c-.07-.38-1.06-.5-1.63-.69l-.13-2.95-1.86-1.14-.06-5.59c-.02-1.45-.29-2.3-1.86-2.85l.12-7.05-1.12-1.24c.1-3.97.26-5.22-1.38-8.86-.64-1.43-2.64.13-3.49.71-.77.53-2.36.26-3.54.12l-1.86,1.84-4.83.07c-3.03,4.05-3.21-.71-7.28,3.31l-4.49.46c-1.25.13-1.95.47-2.63,1.62l-5.65.28c-1.29,3.77-4.35-.26-6.11,2.91l.02.02h0ZM216.66,112.5c1.01.07,1.93-.03,2.28-.6,1.87-3.07,4.6,1.15,5.87-2.8l4.35.14,1.62-2.05c1.23.15,2.85.3,3.77.09.89-1.04,1.46-1.66,3.37-1.36l.28-5.1-1.69-.81.05-4.71-1.51-.69c-.27-.12-.17-1.07-.18-1.41l-.04-2.87c-.82-.24-1.64-.27-1.71-.65l-.32-1.61-4.66-.28-1.09,1.97c-.69.12-1.51.15-1.68.49l-.62,1.2c-.89.36-1.59,1.11-2.26,1.79l-2.46,2.5c-.27.28-1.14.53-1.25.89l-.41,1.32c-.11.35-1.3.29-1.45.63l-.65,1.46c-.7.52-1.43,1.24-1.85,2.01l-1.47,2.66c-.29.19-1.32.29-1.41.67l-.37,1.54c-1.12.51-1.79,1.82-1.62,3.27-.5.26-1.48.37-1.59.8l-.52,2.07c-.08.33-.92.65-1.18.86-.21.17-.13,1.08.12,1.21,1.09.58,3.17-.06,3.88-1.46,6.9.28,3.4-1.38,6.42-1.16h-.02Z"/>
  <path class="cls-9" d="M502.55,227.61c1.67-.58,4.24-.44,6.15-.38l22.95.79.82,1.96,4.92.43.76,1.58c.2.42,1.4.36,2.09.54.58.15.91,1.52,1.19,2.19.5.18,1.26.22,1.49.54.27.37.47,1.49.62,2.08l1.37.65c.34.16.13,1.51.32,1.85,2.27,4.05-1.07,3.41,2.58,4.52l-.56,11.8-1.85.8c-.08,1.58-.14,3.53-.4,4.88-.92,1.19-1.76,1.9-1.29,3.82l-2.07.95c.47,2.11-1.23,2.84-2.21,4.24-.54.77-1.1,1.78-1.71,2.39l-6.14,6.2c-.57.58-1.57.97-2.32,1.13-.78,1.14-1.75,1.67-3,2.25s-2.04,2.5-4.11,1.39l-1.84,2.09-3.14.15-1.01,1.62c-.64,1.02-3.48-1.07-4.21,1.66-2.44.22-4.99.11-7.68-.02l-1.33,1.83-21.75-.83-.96-2.05-8.61-.49-.57-1.65c-.29-.85-4.14.12-4.6-.87l-.63-1.6c-.14-.35-1.26-.28-1.66-.29l-1.39-.03c-.32,0-.45-.55-.69-1.23-.61-1.79-3.08-.47-3.29-1.38l-.43-1.81-2.13-.11c-.14-1.47-.99-1.85-1.88-2.68l-2.15-1.99-.47-1.52c-.11-.37-1.27-.46-1.57-.62-.29-1.07-.76-2.05-1.41-2.89l-1.65-2.12c-.23-.29.03-1.51-.28-1.71l-1.42-.9v-2.79c-3.87-1.63.43-4.58-3.27-5.98l.13-5.78-1.79-1.35.97-19.42,1.96-.91.6-6.59c3.91-.82.76-4.45,5.07-7.93.46-.41.47-2,.56-2.69l1.35-.61c.4-.18.47-1.46.65-1.88,1.09-.37,1.43-1.69,2.06-2.48l1.79-2.26c.98-1.24,2.23-2.84,3.41-4l1.9-1.86,1.28-.66.76-1.38c.32-.58,1.85-1.17,2.47-1.68l3.12-2.57c.77-.63,2.69-.22,2.74-2.14l2.69-.24c.43-1.23,1.01-1.74,2.12-1.98l3.63-.77,1.09-1.53c.26-.37,1.48-.24,2-.14,1.46.27,2.18-.58,3.17-1.5,1.54-1.42,5.11,1.41,6.09-1.98l8.53.19.92-1.41c.25-.38,1.51-.27,2.03-.25l12.98.49.56,1.92,7.79.48.79,2.04,3.65.25c.51,1.19,1.84,1.61,3.08,1.74.31.44.54,1.48.97,1.58l1.96.46c.64,2.17,2.55,1.91,4.06,4.57l1.51,2.66c.53.93.22,3.21.03,4.33l-1.89.22c-.39.04-.55,1.11-.74,1.4-.82.28-1.87.68-2.4,1.22l-1.75,1.81c-.61.63-1.04,1.2-1.45,2.18l-1.34.83-.15,4.41c.8.58,1.34,1.1,1.71,1.96l2.09.45c-.38.8-1.6,2.07-2.52,2.07-2.48,0-4.8,0-7.15-.4l-3.47-.61c-.5-1.5-1.45-2.64-3.32-2.13-.46-.52-.99-1.47-1.47-2.4l-4.96-.52-.83-1.92-12.09-.61c-.95-.05-1.59.77-2.09,1.84l-6.18-.14c-.41,2.35-2.95,1.62-4.13,2.43l-3.35,2.29c-3.35,2.29-2.76,2.37-5.37,4.2-.62.44-1.44,1.7-2.02,2.36l-1.73,1.94-.65,1.99c-1.48.28-1.51,1.5-2.06,2.65-.43.88-1.56,1.88-1.31,3.04.38,1.79-.59,2.48-2,3.16l-.63,11.44c.19.54,1.34,1.33,1.88,1.69l.06,3.44,1.74,2.19c.6.75,1.1,1.78,1.49,2.76l1.64.58c.42.15.47,1.2.67,1.84l2.71.61.33,1.4c.37,1.57,3.17-.78,4.05,2.43l5.19.39.45,1.94,12.74.57.51-1.56c.32-.98,5.01.03,6.44-.52.38-.77,1.22-2.02,1.91-1.83,1.66.46,2.3-1.24,3.35-1.74,1.23-.59,1.76-1,2.53-2l1.84-2.4c.52-.67,1.48-1.15,1.29-2.31l-9.15-.39-2.26,1.7-12.48-.46c-.36-1.3-.79-2.15-1.89-2.18-.59-.02-1.5-.03-1.56-.23l-.48-1.58-1.55-.72c-.93-.43.93-2.55-2.14-3.43l.28-9.17,1.96-1.26c.12-.96.2-1.63.36-2.2.15-.53,1.58-.69,1.97-1.07.27-.26.54-1.16.78-1.44.28-.34,1.23-.41,1.92-.51.49-.08,1.15-.97,1.64-1.41,1.22-1.1,3.54,1.16,6.8-1.32l-.03-.08h0Z"/>
  <path class="cls-8" d="M470,104.57c.11.72,2.74.06,3.57.6.38.25.55.91.92,1.81l1.98.3.41,2.29c.48.19,1.5.27,1.61.66.46,1.56-.15,3.2.24,3.35l1.75.66-.62,13.36-1.87,1.29-.68,6.54-1.66.67c-.41.16-.48,1.48-.34,2.07.31,1.35-1.52,2.21-2.14,3.15-.68,1.03-.99,2.52-2.04,3.51-.67.63-1.09,1.44-1.62,2.13l-1.71,2.25c-.45.6-1.57,1.69-2.12,2.26-.25.26-1.41.23-1.54.58l-.57,1.58c-1.43.15-2.36,1.19-3.4,2.13-.77.7-2.69.09-2.56,2.13l-2.94.22c-1.18,3.79-3.8.62-4.75,2.72-1.41,3.12-4.1-.95-5.36,2.6-3.72,1.32-7.35-1.75-8.31,2.04l-19.09-.74c-.54-.02-1.07-1.35-1.3-1.97l-8.2-.52c-.86-3.61-3.16-1.55-5.08-2.63l-.66-1.67c-.15-.37-1.33-.41-1.74-.41-1.35.02-2.04-.6-2.1-2.09l-2.75-.61c-.13-.51-.19-1.54-.56-1.64l-1.68-.46c-.05-1.05-1.38-1.65-1.81-2.23l-1.92-2.63c-.49-.67-.87-1.44-1.53-1.88-1.79-1.19-.35-2.41-1.01-2.79l-1.48-.84-.2-2.52c-3.47-1.59.42-4.2-3.14-5.52l-.27-4.67c-.03-.53.05-1.48-.09-1.86-.14-.38-.95-.49-1.57-.73l.79-19.06c.06-1.51,1-2.3,2.05-2.96l1.01-8.08,1.8-1.27.23-3.64c3.03-.31,1.24-3.62,2.13-3.96l1.58-.6c0-1.64.87-2.65,1.84-3.88.97-1.23,1.26-2.92,2.86-3.63l.49-1.82c.89-.57,1.69-1.13,2.32-1.88l1.93-2.31c.43-.51,1.4-1.44,1.91-1.86l2.43-1.97,2.29-1.85c.64-.52,1.67-1.33,2.3-1.73l3.2-2.03c.96-.61,1.79-1.16,2.75-1.84.77-.55,2.8-.24,3.35-1.54.68-1.58,3.55-.29,4.07-1.11l1.05-1.68,5.81.05c.29-.65.89-1.9,1.4-1.88l8.66.29c.5-1.23,1.03-1.97,2.15-1.91l11.99.57.43,2.04,8.83.37.44,1.95,3.81.27.95,1.92,2.39.25,2.33,1.99c.69.59,1.5,1.31,2.35,1.95.76.57.57,2.39,2.37,2.02l.29,2.13,1.5.71c.57.27-.11,2.31.28,2.71.24.24.85.43,1.71.71l-.54,10.43c-3.74.87.78,1.77-5.65,5.24-.32.22-.41,1.4-.8,1.43l-1.93.15c-.49.04-.91.96-1.24,1.85-2.78.1-6.31-.03-9.1-.27l-.65-1.72c-.22-.57-2.93.09-3.21-.85-.1-.35-.31-1.26-.46-1.6s-1.48-.23-1.84-.38c-.43-.18-.52-.95-.78-1.86l-4.96-.44-.56-1.88-11-.57-1.24,1.68-5.22.08c-2.05,4.44-3.66-.38-5.24,3.63l-2.14.49c-.18,1.4-1.4,1.6-2.19,2.32l-2.42,2.21c-.66.6-1.51,1.56-2.16,2.28l-2.02,2.27c-.68.76-.84,2.62-2.33,2.94-.51,3.5-1.67,2.83-1.5,4.69.16,1.65-.38,2.17-1.91,2.59l-.62,11.77,1.51.69c1.22.56-1.59,4.05,2.72,6.55l.33,2.22c1.32.19,2.07.84,2.32,2.3l2.53.34,1.09,2.03,4.92.3.67,2.01,11.6.44,1.61-1.73,4.67-.07c1.63-3.68,2.02-.14,5.36-4.35l1.76-2.21c.25-.32.56-1.19.88-1.35l.94-.47c.27-.14.35-1.14.06-1.22l-1.26-.35c-2.01-.56-2.95.64-4.3,1.07-3.63,1.16-8.11.11-11.78.09l-.78-1.84c-.23-.55-2.43.99-4.78-2.96-.2-.34.04-1.66-.31-1.79l-1.69-.67.36-8.95,1.57-.71c.42-.19.32-1.73.63-2.07l2.28-2.53c.74-.82,2.73-.44,2.81-2.34h3.5c.59-1.66,1.7-1.53,3.2-1.48l28.85.94.26,1.76.04-.06h0Z"/>
  <path class="cls-7" d="M436.06,251.47l-.35,10.49c-.69.23-1.55.31-1.64.7l-.5,2.18-3.54,3.88c-.57.63-1.83,1.21-2.37,2.1l-2.09.75-.56,1.37c-.33.81-2.79-1.04-3.77,1.97l-3.14.15c-1.92,4.09-3.54-.55-5.02,3.58h-5.03c-.52,1.07-1.24,1.87-2.55,1.83l-6.87-.19c-.46.71-1.34,1.95-1.96,1.93l-20.13-.84-.58-2.05-8.34-.47c-.2-.73-.6-2.03-1.15-2.06l-4.3-.27-.45-1.39c-.35-1.07-2.83-.35-3.02-.84l-.59-1.53-2.87-.58-.46-1.55c-.12-.41-1.44-.51-1.74-.82-.55-.76-1.22-2.22-2.58-1.99l-.43-1.95-1.61-.31c-.32-.06-.28-1.2-.5-1.47-.57-.71-1.17-1.77-1.58-2.64-.51-1.09-2.44-1.41-1.41-3.39l-1.87-.79-.13-2.75c-2.83-1.29-.69-4.17-1.67-4.72l-1.47-.82v-6.56l-1.81-.86.95-17.75c1.15-.29,2.03-.85,2.08-1.71l.32-5.5c.04-.67,1.36-1.47,1.92-1.83l.93-3.71c.75-1.04,1.3-1.9,1.93-2.88.57-.89,1.62-1.42,1.78-2.66.12-.95.86-1.64,1.7-2.27l.91-2.1c1.37-.05,1.38-1.45,1.93-1.99l2.62-2.6c3.81-3.79-.91,0,3.65-3.43l2.15-1.62c.89-.67,1.49-1.1,2.18-2.15l2.27-.22c.15-2.33,2.3-1.7,3.52-2.37,1.1-.6,1.66-2.63,3.6-1.65l1.62-1.96c1.66.64,2.83.35,3.44-1.25l4.61.06c.43,0,.86-1.2,1.08-1.92l7.86.17c.66,0,1.2-.79,1.44-1.73l18.9.69.74,2,7.87.35.72,2.2,4.42.27.54,1.93,2.69.34c.11,1.54,1.82,1.57,2.47,2.32s1.16,1.7,2.28,1.97l.73,2.18c1.01.29,1.73.84,1.67,1.58s-.17,1.41,0,1.68c.22.34.96.46,1.77.73l-.58,9.56c-1.25.46-1.81.92-1.86,2.22-.07,1.73-3.71,4.41-3.35,3.95l-1.23,1.55c-.31.39-1.36.26-2.31.27l-1.44,1.94c-3.16.09-6.51-.02-9.64-.3l-.88-2.25c-1.18-.03-3.3-.02-3.77-.81-2.83-4.81-6.77.38-7.1-4.35l-12.67-.59-1.47,1.8-5.44.02c-1.44,3.08-3.68,1.31-4.04,2.09l-.66,1.41-1.85.45-3.69,2.81-1.77,1.94-2,2.22-2.2,2.66c-.07,1.7-.42,3.3-2.28,3.96l-.51,9.9c.6.28,1.67.41,1.68.79l.04,1.86c.01.54-.15,1.78.21,2.05s.99.57,1.76.96l.44,2.26c1.59,0,2.4,1.12,2.75,2.42l2.33.31c.53.07.76,1.1,1.14,1.93l5.03.34.88,2,12.43.47c.47-.25,1.24-1.22,1.63-1.71l5.72-.1c.82-1.18,1.93-2.25,3.26-1.71,1.97.81,2.24-1.2,3.22-1.57,1.31-.5,3.25-.46,3.69-2.25l1.78-.35c.44-.09.59-1.19.78-1.73l2.73-.15.93-1.76,8.28.46.29,1.61c.13.71,2.91.11,3.51.86.22,1.41,1.24,1.98,2.33,2.39l1.09,2.41c.13.3-.03,1.21-.03,1.54s.88.59,1.66.89l-.03.07h0Z"/>
  <path class="cls-4" d="M551.8,135.08c1.57-.12,1.71,1.05,2.44,1.97.8,1.01,2.43,1.4,1.37,3.53l2.09,1.06-.58,9.09c-1.29.31-1.76,1.46-2.15,2.39-.28.66-1.7,1.4-2.1,2.17-.65,1.24-2.16,1.45-3.42,1.43l-.7,1.43c-.19.38-1.26.5-1.77.48l-8.64-.26c-.77.79-1.78,1.51-3,1.47l-18.6-.65c-1.28-.04-2.36.55-3.24,1.35l-20.47-.65-.66-1.61c-.29-.71-2.96-.14-3.75-.94-.03-1.51-1.12-2.16-2.32-2.24l-.44-2.17c-3.07-1.12-1.02-3.84-1.9-4.27l-1.59-.78.2-8.88.72-16.34,1.83-.85,1.15-18.59,2.01-.87.71-11.1,1.1-1.31.44-7.05,1.73-.6.79-8.08c1.43-.42,2.11-1.34,2.01-2.75l1.93-2.09c.75-.81,1.33-1.4,2.36-1.76.29-.37.57-1.46,1-1.53l2.12-.35,1.5-1.91,6.58.27.97-1.84,16.8.54,2.78-1.6,26.91,1.06.59,1.79,3.99.44.68,2.18c1.47.11,2.12,1,1.97,2.37-.02.22-.06,1.03.14,1.09l1.56.47-.57,9.96c-3.86,1.01.15,2.86-4.28,4.45-.29.42-.55,1.38-.96,1.55-.48.2-1.73.26-2.4.31-.74,1.35-1.79,2.03-3.47,1.95l-15.51-.74-11.96-.33c-1.23,1.27-8.07,1.49-10.07,1.51-.54,0-.84,1.23-.82,1.96.13,4.04-1.73.21-1.48,6.41,8.31,1.35,8.69-1.58,14.86-1.3l14.37.63.37,1.61c.09.39,1.19.48,1.64.53l1.17.13c.29.03.28.97.38,1.29l1.92,1.67.07,2.04c.01.41,1.01.52,1.65.7l-.43,9.08-1.89.76c.47,2.08-.92,2.79-2.18,3.85-.87.74-1.09,2.36-2.92,1.54l-1.89,1.92-19.09-.55c-1.29.53-3.04,1.37-4.6,1.33l-6.95-.2-.45,2.74c-.45,2.75-.9,5.19-.55,8.1,5.03.11,9.91.83,14.7.06,2.39-.39,4.48-1.19,7-1.09l17.55.7.37,1.64c.06.29.91.35,1.26.32l.02-.04h0Z"/>
  <path class="cls-5" d="M276.17,256.19l-.11-4.49c-.05-1.79-.85-3.56-.34-5.41.44-1.61-.63-2.99-.6-4.2l.42-15.31.62-15.79c-1-.47-2.41-.32-3.63-.12l-3.56.57c-.74.12-2.29,0-3.06.05-1.48,3.35-3.74-.15-5.97,2.39l-4.47.02-1.28,1.84-9.86-.45-.53-1.7c-.23-.73-2.91-.09-3.43-.71-.28-.33-.36-1.41-.74-1.65-1.32-.88-3.95-3.16-3.2-5.2l-1.97-.77.46-9.16c1.42-.47,2.26-.81,2.08-2.54-.09-.92,1.15-1.45,1.71-1.99l2.32-2.26c.77-.75,1.09-1.81,2.5-1.56,1.24.22,2.04-.55,2.6-1.74l7.01.02c2.56-3.66,4.95.34,7.91-2.45l5.1.1,1.29-1.62,7.19.03c.45-1.05,1.09-1.77,2.28-1.74l7.46.2c.46,0,1.18-1.11,1.46-1.61l9.51.31,1.24-1.67,10.24.12c.91-.26,2.38-1.41,3.54-1.36l8.27.38c1.22-1.47,2.56-1.63,4.38-1.55l14.38.6c.24.63.53,1.41.71,1.77s1.19.23,1.64.27l1.36.12c.37.03.4,1.44.73,1.62,4.79,2.6,2.75,5.13,3.5,5.47l1.65.74-.47,9.52-1.65.99c-.41.24-.24,1.53-.36,2.02l-2.63,2.48-2.16,1.84c-1.35.03-2.91.6-3.84,1.86-3.83,0-8.59-.28-12.07-.44-.71-.03-1.66.97-2.13,1.46-3.14.27-6.88-.61-10.04.02-3.41,2.17-3.03.32-6.48,1.11l-.55,12.52.29,3.79-.9,17.42c-.05,1.04.64,1.53,1.79,1.84l-.27,5.49c-.02.47.44,1.38.79,1.72l2.01,1.94c.62.6.45,2.16,2.15,2.07l-.1,3.6,1.83.68-.55,9.84-2.05.61c.64,2.39-.68,3.34-1.97,4.65-5.93,6-7.53,3.95-7.86,4.56l-.84,1.51-9.89-.44-.42-1.64c-.25-.99-3.18.58-3.97-1.55-.44-1.19-1.51-1.6-2.66-1.86l-.34-1.71c-.07-.36-1.23-.43-1.37-.76-1.92-4.46-.55-3.59-2.72-5.43l-.77-5.59c-.17-1.24-.59-2.27-.63-3.71l.02.02h0Z"/>
  <path class="cls-3" d="M295.13,114.06c-1.13-2.02,1.35-5.63-1.87-6.65l.13-5.15-1.81-1.09.16-4.84c.02-.52-1.17-1.26-1.6-1.69-.21-2.22-.08-5.32.02-7.72.06-1.51.36-2.47,1.92-2.74l.56-2.55c1.06-.54,1.73-1.56,2.22-2.41.4-.26,1.6-.63,1.87-1.07,1.81-2.91,2.97.78,4.34-2.96l8.4.46.33,1.56c.08.41,1.28.43,1.9.34,1.05-.15,1.61,1.21,1.97,1.98l1.42.5c.36.13.2,1.26.48,1.53.41.39,1.48.98,1.78,1.44s.08,1.6-.01,2.44l1.91,1.15-.16,5.44,2.01,1.08-.1,5.27,1.94,1-.08,5.95c1.05.6,2.03,1.66,1.96,2.86l-.23,3.99,2.09,1.12-.19,5.66,1.91,1.1-.06,3.34,1.47.76c.33.17.11,1.36.17,1.79.03.22.86.47.97.27.14-.27.43-.86.64-1.2l1.78-2.9c.46-.75,1.99-1.25,1.61-2.76,4.27-2.84-.53-.68,3.86-5.22.69-.71-.01-2.85,1.84-2.83l.39-3.07c4.29-.99-.31-3.47,4.05-5.31.08-6.47,2.75-3.87,2.52-6.19-.16-1.67.29-2.58,1.93-2.94l.2-3.64c4.52-1.87-.03-5.03,4.18-7.01l.47-3.42c3.97-2.78-.52-4.83,3.89-6.73v-1.68c0-.41,1.01-.75,1.24-1.1.51-1.08,1.19-1.46,2.21-2.01.95-.52,1.02-2.11,2.93-1.36.68.26,1.38-.68,1.7-1.66l8.57.32.37,1.66c.08.38,1.08.29,1.6.34l1.63.15c.4.04.43,1.1.59,1.6,1.68,1.02,3.16,2.78,2.54,5.05l1.83.85-.49,9.8c-.08,1.53-1.72,2.49-2.17,3.38l-.96,5.24c-.29,1.57-.49,2.45-2.12,3.31l-.84,5.25-1.46.7c-1.17.56.8,4.01-2.26,4.91l-.69,3.01c-3.67,2.38.31,3.65-3.78,5.74-.42.72-.34,2.53-.39,3.55-4.06,2.19-.48,2.86-4.02,4.53l-.45,2.74c-1.29.64-2.11,1.51-1.79,3.19l-2.2,1.68c.39,1.81-.77,2.88-2.11,3.56l-.6,2.84c-1.41.44-2.27,1.16-1.85,2.83l-1.92,1.08c.02,1.77-.93,2.31-1.97,3.43-3.07,3.29-1.89,3.85-4.11,4.96l-.71,1.47c-.18.37-1.32.33-1.52.68-.16.27-.32.96-.45,1.24s-.99.5-1.22.74c-1.19,1.28-2.82,2.26-4.5,2.99l-.85,1.33c-.76,1.19-3.94-1.58-5.32,2.24l-11.74-.56-.65-1.77c-.27-.73-3.39-.12-3.73-.76l-.88-1.66c-.18-.34-1.33-.34-1.69-.41-.44-.08-.5-1.32-.9-1.55-1.09-.64-2.6-2.18-2.96-3.4l-1.31-.94c-.36-.26-.23-1.29-.25-2.09l-1.83-.99-.12-2.84c-2.27-.69-1.26-1.33-2.71-5.83-.08-.26-1.2-.42-1.22-.69l-.07-1.51c-.02-.38.24-1.36-.08-1.49l-1.54-.61-.63-5.5c-1.05-.5-1.61-1.16-1.71-2.23l-.4-4.71-1.67-1.26-.03-4.9c-.19-.5-1.23-1.33-1.51-1.83h-.01,0Z"/>
  <path class="cls-2" d="M135.76,101.92l-2.14,2.54c-.97,1.15-1.7,2.5-3.17,2.89l-.57,1.87-3.55-.18c.03-1.25-.5-2.12-1.32-2.69l.09-4.93c-1.36-.54-1.56-1-1.5-2.11.12-2.64.12-4.92.07-7.68l-3.91-.43c-.12-.38-.51-1.72-.93-1.76l-4.07-.37-.47-1.7c-.11-.38-1.22-.14-1.69-.22l-2.02-.37c-.44-.08-.41-1.32-.56-1.81l-2.66-.32.26-3.03c1.16-.4,1.63-.95,1.86-1.99l2.23-.16c.82-1.61,2.49-2.49,4.37-2.27l.97-1.85,3.19-.26c.91-.87,1.57-1.23,2.78-1.68.64-.74-.34-2.65-.35-3.8-.03-2.29.07-4.72.16-6.91.35-.13,1.55-.64,1.57-1l.32-5.13c1.31,0,2.87.08,4.06.21.12.81.12,2.04.58,2.13l1.83.34c.38.07.42,1.01.63,1.61l2.14.56.58,1.47c.14.35,1.27.34,1.8.43l.16,1.51c.05.44,1.24.74,1.95.81l.37,2.07c7.98.59,5.57-1.63,8.82-1.81,1.28-.07,1.75.59,2.27,1.83l4.76.4.02,6.48c0,.47-.78,1.33-.99,1.73-.65,1.22-1.15,2.75-1.96,3.82-.47.61-1.2,1.28-1.27,1.89-.27,2.23,3.45,2.18,2.42,5.75l2.13.95.02,2.71,1.46.61c.84.35-.11,2.85.48,3.02l1.63.48-.16,4.19-10.12-.36c-.11-.65-.55-1.9-1.1-1.92l-7.81-.36-.5,1.8c-.1.35-1.05.53-1.29.79l-1.86,2.2h-.01Z"/>
  <path class="cls-6" d="M171.51,71.73l-.46,1.82-1.37.55c-.41.17-.48,1.49-.72,1.89-.18.31-1.22.32-1.35.66l-.71,1.85c-.17.44-1.53.58-1.67,1.01s-.27,1.19-.39,1.92l-2.14.3-.44,2.17-3.92-.22-.36-5.84-1.11-.62c-.26-.15-.17-.96-.18-1.38l-.12-3.86.09-5.1-3.06-1.13c-1.39-.51-3.54-.22-5.22-.41l-.59-1.98-4.37-.31-.44-1.96-3.17-.15.04-3.45c3.43-3.28,3.1-.96,4.02-3.75l2.7-.03c.31,0,.48-1.08.69-1.31.27-.28,1.33-.09,1.72-.29l2.4-1.27,2.21-1.1c1.81-.9.11-3.23.12-4.41l.03-5.78c0-.68.69-1.42,1.45-1.84l.5-5.48,3.36.13.32,2.02,2.5.3.42,1.96,1.53.12c.33.03.3,1.19.36,1.74l2.32.56.23,1.92c.06.5,1.69.43,2.14.53.19,1.02.33,2.25,1.16,2.3,1.32.09,2.15-.03,2.58-1.29h3.45c2.47-2.73,4.77,1.19,6.29-2.48l4.85.27-.39,5.13c-3.06.66-.82,2.84-2.49,6.32l-1.14.21c-1,.19.62,2.38-1.48,3.56-.33.19-.9,1.09-.71,1.38l.94,1.46c.53.82,1.05,1.32,2.14,1.88l.11,2.88,1.72.6c.11.54.2,1.33.41,1.62s.92.38,1.52.59l.04,3.58,2.04.39-.27,4.08-9.62-.2-.75-1.69-7.79-.36h.03Z"/>
  <path class="cls-11" d="M563.4,219.16c-2.07,4.65-3.77,3.64-4.04,6.41l-1.42.58c-.37.15-.22,1.31-.31,1.72-1.05.44-1.77,1.11-2.18,2.28-.46.28-2.32.45-2.76-.08l-1.56-1.91-.18-4.73-1.37-.7c-.02-2.17-.08-4.41-.34-6.63l-5.81-.45c-1.44-2.8-4.08.48-4.65-2.78l-3.08-.3.21-3.09,1.96-1.88,1.24-.41c.36-.12.56-.78.82-1.48l2.2-.42.57-1.3c.15-.34,1.31-.23,1.61-.47l1.9-1.52c1.55-1.25-.04-3.53-.25-4.86-.64-3.99,1.16-.33-1.06-6.15-.17-.44,1.02-.86,1.68-1l.37-3.34c.45-.28,2.36-.37,2.89.1l2.03,1.81c.68.61,1.59,1.06,2.52,1.36l.8,1.6c.21.43,1.62.13,2.11.21.25,1.03.58,2.04,1.37,2.52l1.42.86c.33.2,1.03-.62,1.41-.7l2.38-.45c.58-.75,1.34-1.09,2.43-1.07,1.31.02,1.83.44,2.37,1.67l5.35.4c.53.08.76,1.9.42,2.3-.34.4-.81.86-1.45,1.51l-.22,2.94c-.87.84-2.37,3.36-2.6,4.42-.18.82,1.18,1.07,1.58,1.54l1.58,1.85c.19.22.36.97.51,1.23s.76.38,1.34.56c.03,1.66,1.02,2.89,1.98,4.1.54.68.5,1.4,1.76,1.9l-.17,3.53-8.75-.1-1.04-1.34-5.55-.25h-.02Z"/>
  <path class="cls-12" d="M588.86,197.25c-.06,2.37-1.91,2.3-3.42,6.04-.32.09-1.07.15-1.14.39l-.4,1.42c-.69.46-1.53,1.25-2.09,2.04-.43.61-2.52.6-2.89.05l-.83-2.47v-3.66l-1.51-.87.34-5.56c-1.65-.04-2.43-.39-3.36-1.5l-4.87-.28-.48-1.18c-.47-1.16-.88.83-3.56-1.47-.85-.73-1.48-.96-1.58-1.74-.25-1.98.9-1.29,1.81-2.03,1.19-.97,2.97-1.64,4.26-2.52l2.14-1.47,2.34-1.26c.64-.35.11-1.95.04-2.75-.4-4.91.54-6.6.5-11.57l3.19-.06c.1.79.06,1.04.22,1.31.19.32,1.31.63,1.59.91.56.58,1.63,1.5,2.29,2.08s1.02,1.55,2.03,1.92c.59.21,1.08.89,1.45,1.49.75,1.21,2.48.25,3.49,0,1.25-.31,1.97-.51,2.87-1.53l3.81.03c.41,0,.8-.98.99-1.66l3.93.09-.11,3.99-1.59.57-.2,4.7c-1.24.54-1.62,1.43-2.02,2.75l-.66,2.16c-.17.57,1.26,1.13,1.62,1.6.19.25.08,1.41.38,1.51l1.33.45c.3.1-.1,1.1-.02,1.39.1.36.97.66,1.29.91.62,1.33,1.43,3.02,2.83,3.88l-.21,3.33-6,.11c-.92.02-1.54-.23-2.08-1.19l-5.7-.36h-.02,0Z"/>
  <path class="cls-13" d="M162.84,234.13c-1.88-.11-3.5-.93-5.25-1.36l-5.52-1.35-6.24-1.62-5.26-1.35c-1.78-.45-3.36-1.04-5.16-1.82l-1.38.9-5.79-2.18-18.79,40.13-2.43-.78-2.81,4.86-2.76-.83-1.47,2.36-3.38.4-2.01-.21c-.53-.05-.89,1.06-1.34,1.79-1.46-.27-3.21-1.09-4.99-1.92-.45.31-1.04,1.12-1.6,2.01l-13.81-6.43.6-2.37-4.74-2.49c.55-1.33.84-2.18.46-3.23-.48-1.32-1.43-1.8-3.34-2.42l2.25-5.03-2.61-1.55,5.32-11.38,2.75,1.21,2.36-4.86,2.4,1.06c1.03-.97,2.13-1.58,3.83-1.04l1.17-1.85,6,2.23,1.26-1.86,10.95,4.94-.56,2.11,4.82,3.17,2.41-5.3,14.62-31.27,2.52,1.06,1.79-3.64,3.5,1.48.83-1.72,9.38,2.66,56.34,15.22c.45.12,1.43.74,1.5,1.1s-.12.99-.28,1.67l3.36,1.71-1.82,3.9,2.32,1.39-4.54,9.94-22.64,48.39c-.55,1.18-1.21,2.15-1.87,3.3-3.94-.52-3.67,2.64-5.56,4.15-.82-.28-1.85-.82-2.26-.69-1.55.48-1.48,2.31-2.53,2.64-1.32.42-1.72-1.15-5.4.08l-.95,1.16c-.26.32-1.47.07-1.93-.13l-3.62-1.57-1.17,2.02-14.25-6.58.71-2.3-5.08-2.57c-.6-1.02,1.22-2.21.08-4.14-.43-.73-1.58-1.19-2.82-1.75l2.03-4.92-2.53-1.39,5.34-11.35,2.64,1.2,2.37-4.86,2.78,1.15c.71-1.55,2.08-2.22,3.95-1.21l1.51-1.9,5.92,2.1c.3-.59.67-1.5,1.01-1.51.42-.01,1.12.15,1.63.39l10.43,4.84-.66,2.01,4.63,3.2,3.18-7.05,8.59-18.34,2.83-5.68c-1.16-1.2-2.97-1.74-4.46-1.44l-4.13-1.58c-3.64.7-1.78-.71-7.15-1.56-1.81-.29-3.78-1.43-5.48-1.53v-.02h0Z"/>
  <path class="cls-14" d="M638.21,134.62c-.91.59-1.45,1.4-2.49,1.16-2.84-.64-.68,2.32-5.3,1.31l-1.42,2.14c-1.63-.34-3.18-.51-4.8-.51l-1.07,2.04-4.21-1.4c-.36-.12-1.38-.39-1.59-.08l-1.23,1.82-15.55-6.57.74-2.53-5.37-2.54.85-3.12c-.78-1.18-3.3-1.23-3.55-1.79-.45-1.06,2.24-3.46.47-5.16l-2.71-1.34,2.34-5.93-2.63-1.3,6.02-14.23,2.76.91,2.65-5.6,2.46.76c.56-.66,1.16-1.47,1.57-1.79.47-.37,1.68-.14,2.69.13l1.53-2.37,4.29.93,1.27-2.18,6.11,1.88,1.29-2.01,13.02,5.4-.75,2.36,5.3,2.57-1.1,2.41,3.54,2.2,3.3-7.9,21.07-49.43,2.62.83,1.89-4.14,2.77,1.15,1.45-2.32,7.14,3.02-.94,2.51,3.05,1.76-3.62,8.62,4.72,2.22-1,2.92,3.84,2.11-1.03,3.28,4.02,1.99-1.83,4.72,3.58,1.67-1.02,3.14,2.22,1.31-2.22,5.94,2.11,1.22-2.74,7.23c-1.34,3.53-2.91,6.92-4.71,10.1-.67-.39-1.89-.76-2.16-.26l-2.77,5.11-2.53-.81-2.56,3.3-3.81-1.37-1.32,2.37-2.72-1.13,1.57-3.88,2.07.63,5.38-12.79-2.3-1.18,1.96-5.34-3.4-1.68.62-2.61c-1.65-1.06-2.33-2.1-3.35-3.67-.63-.91-2.88-1.5-4.25-2.04l-3.06,6.74-17.79,41.37c-.19.43-.78,1.21-1.13,1.33-.43.15-1.28-.26-2.16-.52l-2.94,5.6c-.38.72-2.49.89-3.18,1.34l.03-.03h0Z"/>
  <path class="cls-15" d="M83.26,141.51c.85,1.22,1.33,2.33,1.84,3.26l-1.71,1.6,3.19,5.5-2.04,1.63,1.65,4.03-2.61,4.16,1.26,2.66-4.24,3.26,1.26,2.46-12.23,8.6-1.87-2.11-4.46,2.92-1.59-1.77-2.85-.89-2.25,1.68-3.99-4.85-1.75,1.08c-.24.15-1.06-.18-1.23-.43l-7.69-11.32,2.18-1.68-3.34-5.11,2.01-1.78c-.85-1.76-.62-3.34.84-4.5l-1.37-2.19,4.72-4.05-.97-2.2,9.28-6.67c.56.38,1.11.89,1.82,1.6l4.42-1.93-4.93-6.84-32.17-46.02,2.04-1.66-2.48-3.66,2.38-1.86-1.08-2.48,6.33-4.43,1.71,2.18,3.2-2.01,3.25,4.38,4.18-2.66,2.32,3.14,4.08-2.62,2.41,2.91,3.78-2.61,2.79,3.79,3.7-2.36,2.45,3.42c.44.61,1.71.7,2.29.33l1.88-1.2,3.98,5.58,2.73-1.67,9.87,14.38-1.47,1.35c-.45.41,2.43,4.21,2.2,7.13l-2.26,2.46c.76.82,1.41,1.53,1.49,2.12.26,1.79-2.03,1.97-2.44,3.42-.13.46.49,1.24,1.06,2.13l-3.34,2.47-2.32-3.23,1.59-1.44c.46-.42-1.54-2.47-1.18-2.8l.89-.85-7.58-10.96-2.26,1.32c-1.14-1.27-2.6-2.5-4.01-3.32l-3.81,2.58-1.69-1.95-3.52,1.86-1.51-1.23-4.12,3.01,31.29,44.96s0-.02,0-.02Z"/>
  <path class="cls-16" d="M621.2,282.96l-.64-4.92-4.61.44-1.47-14.35,4.58-.65-.37-5.15,4.59-.61-.42-4.82,4.83-.58-.39-4.78,17.07-1.78.7,4.78,3.75-.27.66,4.77,3.72-.38-.91-6.07-1.02-5.54-5.65-55.63,4.76-.78-.29-4.4,7.28-.82.54,3.69,4.06-.23,8.44,82.64-4.35.69.34,5.11-4.69.63.24,6.04-6.67.88c-.61.08-1.66-.29-2.68-.64l.25,4.36-4.87.63.24,4.18-16.22,1.67-.73-4.14-4.91.31-.55-4.65-4.64.37h.03,0Z"/>
</svg>